<svg width="106" height="100" viewBox="0 0 106 100" fill="none" xmlns="http://www.w3.org/2000/svg">
<path d="M79.9968 79.5909C83.7544 82.4091 89.3909 80.5303 84.2241 75.3636C68.7241 60.3333 72.012 19 52.7544 19C33.4968 19 36.7847 60.3333 21.2847 75.3636C15.6483 81 21.7544 82.4091 25.512 79.5909C40.0726 69.7273 39.1332 52.3485 52.7544 52.3485C66.3756 52.3485 65.4363 69.7273 79.9968 79.5909Z" fill="#3186FF"/>
<mask id="mask0_290_467" style="mask-type:luminance" maskUnits="userSpaceOnUse" x="19" y="19" width="68" height="62">
<path d="M79.9968 79.5909C83.7544 82.4091 89.3909 80.5303 84.2241 75.3636C68.7241 60.3333 72.0119 19 52.7544 19C33.4968 19 36.7847 60.3333 21.2847 75.3636C15.6483 81 21.7544 82.4091 25.512 79.5909C40.0726 69.7273 39.1332 52.3485 52.7544 52.3485C66.3756 52.3485 65.4362 69.7273 79.9968 79.5909Z" fill="white"/>
</mask>
<g mask="url(#mask0_290_467)">
<g filter="url(#filter0_f_290_467)">
<path d="M16.1466 5.00206C15.0037 15.0709 23.6804 24.3232 35.5266 25.6678C47.3728 27.0124 57.9025 19.9401 59.0454 9.87129C60.1883 -0.197496 51.5115 -9.44988 39.6654 -10.7945C27.8192 -12.1391 17.2895 -5.06673 16.1466 5.00206Z" fill="#FFE432"/>
</g>
<g filter="url(#filter1_f_290_467)">
<path d="M61.8202 37.9208C64.7882 50.6995 77.7811 58.5998 90.8408 55.5666C103.9 52.5334 112.081 39.7152 109.113 26.9365C106.145 14.1578 93.1523 6.2575 80.0927 9.29074C67.0331 12.324 58.8522 25.1421 61.8202 37.9208Z" fill="#FC413D"/>
</g>
<g filter="url(#filter2_f_290_467)">
<path d="M-15.8927 46.4935C-12.1423 59.6815 4.74767 66.434 21.8323 61.5757C38.9168 56.7173 49.7264 42.0878 45.9761 28.8998C42.2258 15.7117 25.3358 8.95925 8.25118 13.8176C-8.8334 18.676 -19.643 33.3055 -15.8927 46.4935Z" fill="#00B95C"/>
</g>
<g filter="url(#filter3_f_290_467)">
<path d="M-15.8927 46.4935C-12.1423 59.6815 4.74767 66.434 21.8323 61.5757C38.9168 56.7173 49.7264 42.0878 45.9761 28.8998C42.2258 15.7117 25.3358 8.95925 8.25118 13.8176C-8.8334 18.676 -19.643 33.3055 -15.8927 46.4935Z" fill="#00B95C"/>
</g>
<g filter="url(#filter4_f_290_467)">
<path d="M-2.33474 57.424C7.06676 67.0267 23.2582 66.4207 33.8299 56.0705C44.4016 45.7203 45.3502 29.5453 35.9487 19.9426C26.5472 10.3399 10.3557 10.9459 -0.215944 21.2961C-10.7876 31.6463 -11.7362 47.8213 -2.33474 57.424Z" fill="#00B95C"/>
</g>
<g filter="url(#filter5_f_290_467)">
<path d="M46.8511 93.6408C49.7705 106.21 61.9494 114.121 74.0533 111.31C86.1573 108.498 93.6029 96.0298 90.6835 83.4603C87.7641 70.8908 75.5852 62.9802 63.4813 65.7914C51.3773 68.6027 43.9317 81.0713 46.8511 93.6408Z" fill="#3186FF"/>
</g>
<g filter="url(#filter6_f_290_467)">
<path d="M26.2159 -6.75828C20.1029 6.85928 26.791 23.1255 41.1543 29.5733C55.5176 36.0211 72.117 30.2089 78.2301 16.5913C84.3432 2.97378 77.6551 -13.2924 63.2917 -19.7402C48.9284 -26.1881 32.329 -20.3758 26.2159 -6.75828Z" fill="#FBBC04"/>
</g>
<g filter="url(#filter7_f_290_467)">
<path d="M9.84018 124.681C-4.95899 118.872 20.3324 71.0724 26.6215 55.0522C32.9106 39.0321 50.006 30.755 64.8052 36.5647C79.6044 42.3744 97.1458 74.3736 90.8565 90.3936C84.5673 106.414 24.6394 130.491 9.84018 124.681Z" fill="#3186FF"/>
</g>
<g filter="url(#filter8_f_290_467)">
<path d="M99.5089 65.1876C95.5465 69.8118 85.2073 67.4538 76.4151 59.9206C67.6228 52.3875 63.707 42.532 67.6691 37.9077C71.6311 33.2834 81.9705 35.6415 90.7629 43.1746C99.5548 50.7078 103.471 60.5633 99.5089 65.1876Z" fill="#749BFF"/>
</g>
<g filter="url(#filter9_f_290_467)">
<path d="M69.9346 41.6517C86.2303 52.6749 104.996 53.3991 111.848 43.2691C118.7 33.1392 111.045 15.9913 94.7492 4.96806C78.4535 -6.05514 59.6882 -6.7793 52.8359 3.3506C45.9835 13.4805 53.6389 30.6285 69.9346 41.6517Z" fill="#FC413D"/>
</g>
<g filter="url(#filter10_f_290_467)">
<path d="M16.4361 23.7214C12.3989 33.4603 13.7175 43.2584 19.3811 45.6062C25.0448 47.954 32.9088 41.9624 36.946 32.2236C40.9831 22.4847 39.6646 12.6866 34.0009 10.3388C28.3373 7.99095 20.4732 13.9826 16.4361 23.7214Z" fill="#FFEE48"/>
</g>
</g>
<defs>
<filter id="filter0_f_290_467" x="6.58634" y="-20.4176" width="62.0192" height="55.7084" filterUnits="userSpaceOnUse" color-interpolation-filters="sRGB">
<feFlood flood-opacity="0" result="BackgroundImageFix"/>
<feBlend mode="normal" in="SourceGraphic" in2="BackgroundImageFix" result="shape"/>
<feGaussianBlur stdDeviation="4.72953" result="effect1_foregroundBlur_290_467"/>
</filter>
<filter id="filter1_f_290_467" x="15.4822" y="-37.0874" width="139.969" height="139.032" filterUnits="userSpaceOnUse" color-interpolation-filters="sRGB">
<feFlood flood-opacity="0" result="BackgroundImageFix"/>
<feBlend mode="normal" in="SourceGraphic" in2="BackgroundImageFix" result="shape"/>
<feGaussianBlur stdDeviation="22.8649" result="effect1_foregroundBlur_290_467"/>
</filter>
<filter id="filter2_f_290_467" x="-55.5103" y="-26.6326" width="141.104" height="128.659" filterUnits="userSpaceOnUse" color-interpolation-filters="sRGB">
<feFlood flood-opacity="0" result="BackgroundImageFix"/>
<feBlend mode="normal" in="SourceGraphic" in2="BackgroundImageFix" result="shape"/>
<feGaussianBlur stdDeviation="19.4373" result="effect1_foregroundBlur_290_467"/>
</filter>
<filter id="filter3_f_290_467" x="-55.5103" y="-26.6326" width="141.104" height="128.659" filterUnits="userSpaceOnUse" color-interpolation-filters="sRGB">
<feFlood flood-opacity="0" result="BackgroundImageFix"/>
<feBlend mode="normal" in="SourceGraphic" in2="BackgroundImageFix" result="shape"/>
<feGaussianBlur stdDeviation="19.4373" result="effect1_foregroundBlur_290_467"/>
</filter>
<filter id="filter4_f_290_467" x="-47.6842" y="-25.7557" width="128.982" height="128.878" filterUnits="userSpaceOnUse" color-interpolation-filters="sRGB">
<feFlood flood-opacity="0" result="BackgroundImageFix"/>
<feBlend mode="normal" in="SourceGraphic" in2="BackgroundImageFix" result="shape"/>
<feGaussianBlur stdDeviation="19.4373" result="effect1_foregroundBlur_290_467"/>
</filter>
<filter id="filter5_f_290_467" x="9.27496" y="28.2818" width="118.985" height="120.537" filterUnits="userSpaceOnUse" color-interpolation-filters="sRGB">
<feFlood flood-opacity="0" result="BackgroundImageFix"/>
<feBlend mode="normal" in="SourceGraphic" in2="BackgroundImageFix" result="shape"/>
<feGaussianBlur stdDeviation="18.4712" result="effect1_foregroundBlur_290_467"/>
</filter>
<filter id="filter6_f_290_467" x="-9.52906" y="-55.8511" width="123.504" height="121.535" filterUnits="userSpaceOnUse" color-interpolation-filters="sRGB">
<feFlood flood-opacity="0" result="BackgroundImageFix"/>
<feBlend mode="normal" in="SourceGraphic" in2="BackgroundImageFix" result="shape"/>
<feGaussianBlur stdDeviation="16.7401" result="effect1_foregroundBlur_290_467"/>
</filter>
<filter id="filter7_f_290_467" x="-24.6346" y="4.80854" width="146.704" height="150.657" filterUnits="userSpaceOnUse" color-interpolation-filters="sRGB">
<feFlood flood-opacity="0" result="BackgroundImageFix"/>
<feBlend mode="normal" in="SourceGraphic" in2="BackgroundImageFix" result="shape"/>
<feGaussianBlur stdDeviation="14.9496" result="effect1_foregroundBlur_290_467"/>
</filter>
<filter id="filter8_f_290_467" x="39.3686" y="8.78611" width="88.441" height="85.523" filterUnits="userSpaceOnUse" color-interpolation-filters="sRGB">
<feFlood flood-opacity="0" result="BackgroundImageFix"/>
<feBlend mode="normal" in="SourceGraphic" in2="BackgroundImageFix" result="shape"/>
<feGaussianBlur stdDeviation="13.3772" result="effect1_foregroundBlur_290_467"/>
</filter>
<filter id="filter9_f_290_467" x="27.7279" y="-26.3947" width="109.228" height="99.4092" filterUnits="userSpaceOnUse" color-interpolation-filters="sRGB">
<feFlood flood-opacity="0" result="BackgroundImageFix"/>
<feBlend mode="normal" in="SourceGraphic" in2="BackgroundImageFix" result="shape"/>
<feGaussianBlur stdDeviation="11.2986" result="effect1_foregroundBlur_290_467"/>
</filter>
<filter id="filter10_f_290_467" x="-13.8713" y="-18.1386" width="81.1249" height="92.222" filterUnits="userSpaceOnUse" color-interpolation-filters="sRGB">
<feFlood flood-opacity="0" result="BackgroundImageFix"/>
<feBlend mode="normal" in="SourceGraphic" in2="BackgroundImageFix" result="shape"/>
<feGaussianBlur stdDeviation="13.984" result="effect1_foregroundBlur_290_467"/>
</filter>
</defs>
</svg>
