<svg width="106" height="100" viewBox="0 0 106 100" fill="none" xmlns="http://www.w3.org/2000/svg">
<path d="M43.3319 73.9468C40.1857 71.1465 39.2673 65.2627 40.5781 61C42.8509 63.6875 46.0001 64.5389 49.262 65.0195C54.2977 65.7611 59.2432 65.4837 63.9211 63.2426C64.4563 62.986 64.9508 62.6449 65.5355 62.2993C65.9745 63.5392 66.0887 64.791 65.9354 66.0651C65.5626 69.1679 63.9767 71.5647 61.4544 73.3817C60.4457 74.1084 59.3785 74.7581 58.3368 75.4433C55.1365 77.5494 54.2706 80.0189 55.4732 83.6109C55.5017 83.699 55.5273 83.7864 55.5919 84C53.958 83.2877 52.7644 82.2509 51.855 80.8877C50.8945 79.4493 50.4375 77.8579 50.4134 76.1359C50.4014 75.2979 50.4014 74.4525 50.2857 73.6263C50.0031 71.6122 49.032 70.7104 47.2026 70.6585C45.3251 70.6051 43.84 71.7353 43.4462 73.5151C43.4161 73.6516 43.3725 73.7865 43.3289 73.9452L43.3319 73.9468Z" fill="url(#paint0_linear_277_258)"/>
<path d="M44.2779 55.8111C37.9537 56.0712 31.7427 57.5767 26 60.2417L41.5202 18.0548C41.9691 16.7705 42.7387 16 43.7007 16H62.2993C63.2613 16 64.0309 16.7705 64.4798 18.0548L80 60.2417C80 60.2417 72.5606 55.7469 61.7221 55.7469L54.924 34.6213C54.6675 33.5297 53.8979 32.8234 53.0641 32.8234C52.2304 32.8234 51.4608 33.5297 51.2043 34.5571L44.2779 55.8111Z" fill="#2C2C2C"/>
<defs>
<linearGradient id="paint0_linear_277_258" x1="40.0001" y1="84" x2="70.0782" y2="69.4045" gradientUnits="userSpaceOnUse">
<stop stop-color="#D83333"/>
<stop offset="1" stop-color="#F041FF"/>
</linearGradient>
</defs>
</svg>
