<svg width="106" height="100" viewBox="0 0 106 100" fill="none" xmlns="http://www.w3.org/2000/svg">
<path d="M43.5725 73.9187C40.4941 71.0934 39.5962 65.186 40.8789 60.948C43.1235 63.6449 46.1378 64.4796 49.3444 64.9291C54.1965 65.8628 59.2187 65.2567 63.7102 63.1954L64.7364 62.5533L65.2494 62.168C65.6983 63.4522 65.8266 64.7365 65.6342 66.0207C65.4728 67.4823 65 68.8921 64.2476 70.1549C63.4953 71.4178 62.4809 72.5042 61.2732 73.3408C60.6017 73.8298 59.9174 74.3009 59.2209 74.7535L58.2589 75.3956C55.1164 77.5146 54.2827 80.0188 55.4371 83.6147L55.5653 83.8073V83.9999C54.0639 83.3344 52.7922 82.2399 51.9097 80.8536C50.9478 79.4409 50.4988 77.8356 50.4988 76.1019V75.8451V75.845C50.4988 75.0745 50.4988 74.304 50.3706 73.5977C50.114 71.5429 49.152 70.6439 47.3563 70.5797C46.5004 70.5344 45.6572 70.8027 44.9845 71.3345C44.3117 71.8663 43.8554 72.6251 43.7007 73.4692C43.6549 73.6182 43.6121 73.768 43.5725 73.9187Z" fill="#9B9B9B"/>
<path d="M44.2779 55.8111C37.9537 56.0712 31.7427 57.5767 26 60.2417L41.5202 18.0548C41.9691 16.7705 42.7387 16 43.7007 16H62.2993C63.2613 16 64.0309 16.7705 64.4798 18.0548L80 60.2417C80 60.2417 72.5606 55.7469 61.7221 55.7469L54.924 34.6213C54.6675 33.5297 53.8979 32.8234 53.0641 32.8234C52.2304 32.8234 51.4608 33.5297 51.2043 34.5571L44.2779 55.8111Z" fill="#7F7F7F"/>
</svg>
