<svg width="106" height="100" viewBox="0 0 106 100" fill="none" xmlns="http://www.w3.org/2000/svg">
<g clip-path="url(#clip0_277_257)">
<path d="M52.7026 50.0004C52.7026 43.7213 57.7929 38.6309 64.0722 38.6309C70.3513 38.6309 75.4417 43.7213 75.4417 50.0004C75.4417 56.2797 70.3513 61.37 64.0722 61.37C57.7929 61.37 52.7026 56.2797 52.7026 50.0004Z" fill="#02AFF7"/>
<path d="M29.9634 72.7397C29.9634 66.4605 35.0537 61.3701 41.3329 61.3701H52.7025V72.7397C52.7025 79.0189 47.6122 84.1092 41.3329 84.1092C35.0537 84.1092 29.9634 79.0189 29.9634 72.7397Z" fill="#04C960"/>
<path d="M52.7026 15.8918V38.6309H64.0722C70.3515 38.6309 75.4417 33.5406 75.4417 27.2614C75.4417 20.9822 70.3515 15.8918 64.0722 15.8918H52.7026Z" fill="#FF610D"/>
<path d="M29.9634 27.2614C29.9634 33.5406 35.0537 38.6309 41.3329 38.6309H52.7025V15.8918H41.3329C35.0537 15.8918 29.9634 20.9822 29.9634 27.2614Z" fill="#FF001B"/>
<path d="M29.9634 50.0004C29.9634 56.2797 35.0537 61.37 41.3329 61.37H52.7025V38.6309H41.3329C35.0537 38.6309 29.9634 43.7213 29.9634 50.0004Z" fill="#8641FE"/>
</g>
<defs>
<clipPath id="clip0_277_257">
<rect width="45.946" height="68.9189" fill="white" transform="translate(29.7295 15.541)"/>
</clipPath>
</defs>
</svg>
