<svg width="52" height="52" viewBox="0 0 52 52" fill="none" xmlns="http://www.w3.org/2000/svg">
<mask id="mask0_293_7" style="mask-type:alpha" maskUnits="userSpaceOnUse" x="0" y="0" width="52" height="52">
<circle cx="26" cy="26" r="26" fill="#030708"/>
</mask>
<g mask="url(#mask0_293_7)">
<circle cx="26" cy="26" r="26" fill="#030708"/>
<rect x="27" y="-3" width="39.1443" height="91.5704" rx="19.5721" transform="rotate(46 27 -3)" fill="white"/>
<rect x="26.9414" y="4.75427" width="29.4768" height="70.0047" rx="14.7384" transform="rotate(46 26.9414 4.75427)" fill="#030708"/>
<rect x="27.6514" y="14" width="15.4988" height="44" rx="7.74941" transform="rotate(46 27.6514 14)" fill="white"/>
<rect x="26.6514" y="21" width="7.0976" height="44" rx="3.5488" transform="rotate(46 26.6514 21)" fill="#030708"/>
<path d="M26 3C38.7024 3.00015 49 13.2975 49 26C49 28.9543 47.9117 32.8444 45.8438 37.1699C43.8001 41.4446 40.9079 45.9175 37.5674 49.9785C34.2224 54.0449 30.4967 57.6144 26.8252 60.1416C23.1002 62.7056 19.7203 63.9999 17 64C17.0526 64 16.7416 64.0044 15.9863 63.4434C15.2685 62.9101 14.4079 62.058 13.4248 60.8721C11.4621 58.5042 9.3409 55.2173 7.20703 51.6436C5.03724 48.0097 3.07945 44.4702 1.16895 41.2158C0.245206 39.6423 -0.643391 38.18 -1.46289 36.9531C-2.04068 36.0881 -2.64447 35.2516 -3.25098 34.5518C-2.23612 34.0746 -0.769631 33.3435 0.450195 32.168C1.94446 30.7278 3 28.7123 3 26C3 13.2975 13.2975 3 26 3Z" stroke="black" stroke-width="6"/>
</g>
</svg>
