<svg width="92" height="51" viewBox="0 0 92 51" fill="none" xmlns="http://www.w3.org/2000/svg">
<path d="M57.0514 10.3175V29.6227L40.79 19.4391V0L57.0514 10.3175Z" fill="#252849"/>
<path d="M58.0547 10.3175V29.6227L74.316 19.4391V0L58.0547 10.3175Z" fill="#252849"/>
<path d="M91.5904 10.3175V29.6227L75.3291 19.4391V0L91.5904 10.3175Z" fill="#252849"/>
<path d="M25.1112 49.8018H23.7367C23.4958 49.8018 23.3262 49.6144 23.3262 49.3377V34.3702C23.3262 34.0935 23.4779 34.0042 23.7367 33.906L25.1112 33.4419C25.3254 33.3705 25.5217 33.6294 25.5217 33.906V49.3377C25.5217 49.6144 25.3611 49.8018 25.1112 49.8018Z" fill="#252849"/>
<path d="M36.0441 35.3707C34.2323 35.3707 32.724 35.5313 31.2424 36.0133V49.3386C31.2424 49.6421 31.0461 49.8027 30.8497 49.8027C30.8497 49.8027 29.5199 49.8027 29.4574 49.8027C29.2343 49.8027 29.0469 49.6421 29.0469 49.3386V36.4863C29.0469 35.1297 29.2968 34.7281 30.225 34.2372C31.4298 33.6214 33.9021 33.2197 35.223 33.2197H35.9102C36.0441 33.2197 36.294 33.2822 36.294 33.6838V35.0048C36.294 35.219 36.2404 35.3707 36.0441 35.3707Z" fill="#252849"/>
<path d="M63.3133 49.8292C62.519 50.0166 61.1981 50.2576 59.7433 50.2576C57.3782 50.2576 52.4873 50.1684 52.4873 45.1703C52.4873 41.0379 54.5222 40.8237 57.2354 40.3328L63.4204 39.3689V37.923C63.4204 36.9323 63.3669 36.138 62.403 35.7363C61.8764 35.4864 61.1088 35.3615 59.904 35.3615C57.7887 35.3615 54.9863 35.9505 53.8618 36.254C53.8082 36.2629 53.7457 36.2808 53.6922 36.2808C53.5851 36.2808 53.4512 36.2094 53.4155 36.0309C53.4155 36.0309 53.2102 34.9241 53.1656 34.6653C53.1299 34.4779 53.2281 34.2994 53.4423 34.2101C54.3259 33.8531 57.6459 33.2551 60.1449 33.2551C62.0906 33.2551 63.3579 33.5586 64.1523 34.0584C65.5535 34.8884 65.607 36.3432 65.607 37.7891V46.634C65.616 48.8117 65.2054 49.3116 63.3133 49.8292ZM63.4204 41.3235L57.405 42.2785C56.0841 42.5552 54.7364 42.6177 54.7364 45.0542C54.7364 48.1423 57.9583 48.3566 59.7701 48.3566C60.975 48.3566 62.2691 48.1691 63.4204 47.7407V41.3235Z" fill="#252849"/>
<path d="M81.0295 49.1599C81.0295 49.4366 80.8688 49.5169 80.7707 49.5615C80.0834 49.9007 76.0404 50.2666 74.4161 50.2666C69.2842 50.2666 67.9365 47.5534 67.9365 41.7877C67.9365 35.9952 69.2842 33.282 74.4161 33.282C76.0404 33.282 79.6907 33.8443 80.3869 34.1834C80.4672 34.237 80.6814 34.3084 80.6457 34.5851C80.6279 34.71 80.4404 35.79 80.4404 35.79C80.3869 36.0399 80.3066 36.2184 79.9406 36.1202C79.3605 35.9417 75.9779 35.2902 74.5232 35.2902C71.2298 35.2902 70.1856 36.861 70.1856 41.7699C70.1856 46.7055 71.2298 48.2763 74.5232 48.2763C75.9779 48.2763 79.664 47.8747 80.3244 47.6962C80.5743 47.6248 80.7707 47.6694 80.8242 48.0264C80.8242 48.0175 81.0295 48.9725 81.0295 49.1599Z" fill="#252849"/>
<path d="M20.0723 38.3961C20.0723 35.1027 18.6175 33.282 15.351 33.282H13.6731C12.013 33.282 10.8082 33.6211 10.0317 34.3619C9.25521 33.6301 8.05034 33.282 6.39029 33.282H4.72132C1.45477 33.282 0 35.1027 0 38.3961V49.3473C0 49.624 0.169579 49.8115 0.410556 49.8115H1.78499C2.03489 49.8115 2.19555 49.624 2.19555 49.3473V38.4497C2.2491 36.5843 2.9274 35.2545 4.77487 35.2545H6.33674C8.25561 35.2545 8.94284 35.9595 8.94284 37.9945V49.3473C8.94284 49.624 9.11241 49.8115 9.35338 49.8115H10.7278C10.9777 49.8115 11.1384 49.624 11.1384 49.3473V37.9945C11.1384 35.9595 11.8256 35.2455 13.7177 35.2545C14.2086 35.2545 14.9136 35.2545 15.2796 35.2545C17.127 35.2545 17.8053 36.5932 17.8589 38.4497V49.3473C17.8589 49.624 18.0285 49.8115 18.2694 49.8115H19.6439C19.8938 49.8115 20.0544 49.624 20.0544 49.3473L20.0723 38.3961Z" fill="#252849"/>
<path d="M43.3484 49.8037C43.0717 49.8037 42.8575 49.6163 42.7772 49.3128L38.3147 34.1757C38.2255 33.8544 38.395 33.6223 38.5557 33.6223H40.2068C40.4835 33.6223 40.5638 33.8097 40.6174 34.0239L44.7318 48.0187H44.8478L48.9622 34.0239C49.0158 33.8097 49.0961 33.6223 49.3728 33.6223H51.0239C51.1845 33.6223 51.363 33.8722 51.2649 34.1757L46.8024 49.3128C46.7221 49.6163 46.5079 49.8037 46.2312 49.8037H43.3484Z" fill="#252849"/>
<path d="M39.7689 0C36.422 3.27554 27.2115 5.25694 24.177 13.5217C21.7226 20.2156 23.1238 29.8548 23.1238 29.8548C23.1238 29.8548 37.2431 24.3836 39.7689 19.4391V0Z" fill="#252849"/>
</svg>
