<svg width="103" height="32" viewBox="0 0 103 32" fill="none" xmlns="http://www.w3.org/2000/svg">
<path d="M30.9834 15.321V22.5499C30.9834 25.9587 32.5208 27.7004 35.5452 27.7004C38.672 27.7004 40.2609 25.9844 40.2609 22.5499V15.321H39.3898V22.5499C39.3898 25.523 38.1594 26.9064 35.5452 26.9064C32.5208 26.9064 31.8801 24.5491 31.8801 22.5499V15.321H30.9834ZM51.0765 15.9882V17.1671H51.8462V15.9882H51.7692H51.0765ZM83.0128 15.9882V17.1671H83.8069V15.9882H83.7299H83.0128ZM86.37 15.9882V18.6539H84.7806V19.371H86.37V25.2913V25.4452C86.37 26.1116 86.523 26.5989 86.8818 26.932C87.3944 27.4447 88.2668 27.4452 88.9588 27.4196H89.0358V26.7268H88.9588C88.2411 26.7524 87.7795 26.7008 87.4976 26.4189C87.2669 26.2138 87.1641 25.8551 87.1641 25.2913V19.371H89.3437C89.3693 19.4735 92.6495 27.24 92.6752 27.2913C92.2907 28.3934 92.0604 29.0079 91.8041 29.2642C91.3941 29.6743 90.9834 29.8031 90.0607 29.8031H89.9838V30.4945H90.0607C91.0091 30.4945 91.6237 30.4684 92.1107 30.084C92.4695 29.802 92.7512 29.1876 93.1357 28.2906L96.8521 18.6796H96.0067V18.6539C96.0067 18.6539 93.2382 26.0344 93.11 26.3676C92.9819 26.0344 89.9581 18.6539 89.9581 18.6539H87.1641V15.9882H87.0871L86.37 15.9882ZM46.0016 18.4486C44.6431 18.4486 43.4649 19.1656 42.9779 20.2933V18.6539H42.1839V27.3939H42.9779V22.6768C42.9779 20.5495 44.1562 19.1657 46.0016 19.1657C48.3595 19.1657 48.3608 21.2164 48.3608 21.9084V27.4196H49.1548V22.0367C49.1292 21.0372 49.1285 18.4486 46.0016 18.4486ZM64.7631 18.4486C63.7379 18.4486 62.8664 18.8072 62.2 19.4736C61.3542 20.3194 60.8928 21.6778 60.8928 23.1644C60.8671 24.5484 61.3028 25.727 62.0973 26.5472C62.7637 27.2392 63.7123 27.5978 64.7631 27.5978C66.8648 27.5978 68.1976 26.4707 68.5565 24.4202L68.5821 24.3433H67.7881V24.3946C67.4805 25.958 66.3778 26.8807 64.7887 26.8807C63.9686 26.8807 63.277 26.5992 62.7388 26.061C62.0724 25.3946 61.7138 24.3434 61.7138 23.19V23.1643H68.6591V23.0874V22.7538C68.6591 21.421 68.2491 20.2682 67.5315 19.4993C66.8138 18.8329 65.8908 18.4486 64.7631 18.4486ZM77.9122 18.4486C77.169 18.4486 74.7333 18.6022 74.7333 20.7295C74.7333 22.6262 76.4768 22.985 77.7583 23.2413L77.9892 23.2926C79.3476 23.5746 80.655 23.8302 80.655 25.1373C80.655 26.7264 78.8094 26.8807 78.0149 26.8807C76.4258 26.8807 75.349 25.9324 75.2465 24.4459V24.3689H74.4781V24.4459C74.5293 26.3682 75.8876 27.5721 78.0405 27.5721C78.8351 27.5721 81.4747 27.3928 81.4747 25.1117C81.3978 23.2919 79.9874 22.8831 78.2958 22.5499L78.0405 22.4986C76.7334 22.2167 75.5031 21.9598 75.5031 20.7295C75.5031 19.5762 76.7333 19.1401 77.9122 19.1401C78.8349 19.1401 80.3727 19.423 80.3727 21.2683V21.3453H81.1668V21.2683C81.1668 19.4486 80.0139 18.4486 77.9122 18.4486ZM74.0676 18.6026C72.6579 18.5514 71.273 19.3195 70.8117 20.396V18.6539H70.0176V27.3939H70.8117V22.6255C70.8886 21.3184 71.1715 20.8315 71.761 20.1907C72.6837 19.2936 73.76 19.3454 74.0676 19.371H74.1445V18.6026H74.0676ZM51.0765 18.6539V27.3939H51.8462V18.6539H51.7692H51.0765ZM52.7942 18.6539L56.3053 27.3939H57.202L60.5092 18.6539H60.4066H59.6369C59.6369 18.6539 56.8697 26.1626 56.7672 26.4189C56.6647 26.1626 53.6909 18.6539 53.6909 18.6539H52.7942ZM83.0128 18.6539V27.3939H83.8069V18.6539H83.7299H83.0128ZM64.7631 19.1657C66.711 19.1657 67.7625 20.8326 67.8394 22.4986H61.7138C61.8676 20.8326 62.9433 19.1657 64.7631 19.1657Z" fill="black"/>
<path d="M51.2054 0.891795C46.9508 0.763647 44.6192 4.06985 44.5167 6.9917C44.4398 10.7081 47.3618 13.3739 50.8475 13.4508C53.8463 13.5533 57.3054 11.4004 57.4079 7.27394C57.4848 3.1731 54.1785 0.943057 51.2054 0.891795ZM85.4226 0.943098C83.7054 0.943098 81.7062 1.96772 81.7062 4.12067C81.7062 5.58159 82.5778 6.50513 84.3207 7.37656C86.0379 8.24799 87.3443 8.60597 87.3443 10.3232C87.3443 11.1946 86.8317 12.7324 84.9095 12.7324C84.1405 12.7324 83.5261 12.4767 83.0391 12.0666C81.8857 10.9901 81.9114 10.1189 81.8345 9.78573H81.6549V12.4771C82.4751 12.9641 83.6793 13.4765 84.9864 13.4765H85.0634C86.9601 13.4508 88.9851 12.0412 88.9851 9.81139C88.9851 7.40214 87.2938 6.83813 85.6022 5.96671C83.885 5.12091 83.1661 4.68527 83.1661 3.55753C83.1661 2.78863 83.6282 1.66018 85.166 1.66018C85.653 1.66018 86.0888 1.78866 86.4476 1.96808C87.6779 2.6601 87.755 3.63383 87.9088 4.24896H88.0884L87.9857 1.53324C87.1912 1.20004 86.5754 1.04568 86.1397 0.994416C85.8834 0.968764 85.6277 0.943098 85.4226 0.943098ZM30.2913 1.07139V1.251C30.6757 1.27665 30.8815 1.30251 31.0097 1.45626C31.0353 1.5075 31.0867 1.58326 31.1123 1.63452C31.138 1.68575 31.1367 1.7629 31.1367 1.83979V2.07071V11.964C31.1367 12.9379 30.9576 13.0916 30.2656 13.1172V13.2968H32.8801V13.1172C32.188 13.066 32.009 12.9379 32.009 11.964V3.48057C32.009 3.32678 31.9834 3.01872 31.9834 3.01872L32.1373 3.48057L36.3655 13.2455H36.6221L40.9286 3.19832L41.0556 2.78779C41.0556 2.78779 41.0312 2.99325 41.0312 3.17266V11.964C41.0312 12.9379 40.8509 13.0916 40.1589 13.1172V13.2968H43.6443V13.1172C42.9523 13.066 42.7733 12.9379 42.7733 11.964V2.07071C42.7733 1.35306 42.9523 1.30226 43.6443 1.251V1.07139H40.9286L37.0326 10.2975L33.0853 1.07139H30.2913ZM58.3316 1.07139V1.251C58.998 1.27665 59.2026 1.35306 59.2026 2.07071V11.964C59.2026 12.9379 59.0236 13.0916 58.3316 13.1172V13.2968H60.9704V13.1172C60.2783 13.066 60.0993 12.9379 60.0993 11.964V3.07003C60.0993 3.22381 66.8909 11.5027 68.3775 13.2968H68.6597V2.07071C68.6597 1.35306 68.8387 1.30226 69.5307 1.251V1.07139H66.9433V1.251C67.6097 1.27665 67.8143 1.35306 67.8143 2.07071V9.83705L60.6381 1.07139H58.3316ZM75.2215 1.07139C74.6063 2.53232 71.7363 9.29806 70.7623 11.6304C70.5829 12.0405 70.3003 12.6813 70.0952 12.912C69.9414 13.0914 69.7872 13.0916 69.6334 13.1172V13.2968H71.9669V13.1172C71.7875 13.1172 71.3768 13.1168 71.3511 12.758C71.3511 12.6555 71.3769 12.5283 71.4281 12.4002C71.505 12.1951 71.9662 10.9902 72.5557 9.65744H77.1944C77.6558 10.7852 78.0657 11.7592 78.2707 12.1949C78.322 12.3231 78.4504 12.6299 78.4504 12.758C78.4504 13.0912 78.1434 13.1172 77.8102 13.1172V13.2968H81.0648V13.1172C80.6547 13.0916 80.527 12.9896 80.2451 12.3232L75.4524 1.07139H75.2215ZM90.5745 1.07139V1.251C91.2665 1.30224 91.4455 1.43032 91.4455 2.40426V11.9383C91.4455 12.9123 91.2665 13.066 90.5745 13.0916V13.2712H94.06V13.0916C93.368 13.0404 93.1876 12.9123 93.1876 11.9383V7.40222H99.4415V11.964C99.4415 12.9379 99.2624 13.0916 98.5704 13.1172V13.2968H102.056V13.1172C101.364 13.066 101.185 12.9379 101.185 11.964V2.42992C101.185 1.43034 101.364 1.30226 102.056 1.251V1.07139H98.5704V1.251C99.2624 1.30224 99.4415 1.43032 99.4415 2.40426V6.65813H93.1876V2.40426C93.1876 1.43032 93.368 1.27663 94.06 1.251V1.07139H90.5745ZM50.9745 1.68584C53.6656 1.68584 55.4606 3.89084 55.4349 7.37656C55.4349 10.606 53.6657 12.6567 51.0001 12.6567C48.7959 12.6567 46.464 10.8874 46.464 6.94037C46.464 3.63407 48.3089 1.68584 50.9745 1.68584ZM74.8366 3.86544C74.8366 3.86544 75.9395 6.63358 76.8622 8.88904H72.838C73.6325 6.94114 74.8366 3.86544 74.8366 3.86544Z" fill="black"/>
<path d="M18.9112 6.94062H18.7061V2.63474C18.8855 3.07045 18.9112 3.50616 18.9112 3.86499V6.94062ZM10.7607 5.22339C11.017 5.30028 11.299 5.35154 11.6065 5.37717V5.17213C11.3502 5.14648 11.0683 5.09524 10.812 5.01835C10.4788 4.94146 10.1712 4.86457 9.86368 4.86457C9.7099 4.86457 9.55612 4.89022 9.42797 4.94146V5.17213C9.53049 5.12089 9.68427 5.09524 9.86368 5.09524C10.1456 5.06959 10.4532 5.14648 10.7607 5.22339ZM8.2746 5.06961C8.45402 5.06961 8.6078 5.09526 8.71032 5.1465V4.91583C8.58217 4.86459 8.42839 4.83894 8.2746 4.83894C7.96704 4.83894 7.65948 4.91582 7.32628 4.99272C7.06998 5.06961 6.81368 5.12087 6.53175 5.1465V5.35154C6.81368 5.32589 7.09561 5.27465 7.37755 5.19776C7.71074 5.14652 7.99267 5.06961 8.2746 5.06961ZM8.2746 4.55701C8.45402 4.55701 8.6078 4.60824 8.71032 4.63389V4.40322C8.58217 4.35198 8.42839 4.35198 8.2746 4.32633C7.96704 4.32633 7.65948 4.40322 7.32628 4.48011C7.06998 4.55701 6.81368 4.60827 6.53175 4.63389V4.83894C6.83931 4.81329 7.09561 4.76205 7.37755 4.68515C7.71074 4.60827 7.99267 4.53137 8.2746 4.55701ZM8.2746 5.60785C8.45402 5.60785 8.6078 5.6335 8.71032 5.68473V5.45406C8.58217 5.40283 8.42839 5.40283 8.2746 5.37717C7.96704 5.37717 7.65948 5.45406 7.32628 5.53095C7.06998 5.60785 6.81368 5.6591 6.53175 5.68473V5.88977C6.83931 5.86412 7.09561 5.78726 7.37755 5.736C7.71074 5.6591 7.99267 5.58222 8.2746 5.60785ZM8.2746 4.01877C8.45402 4.01877 8.6078 4.07 8.71032 4.09566V3.86499C8.58217 3.81376 8.42839 3.7881 8.2746 3.7881C7.96704 3.7881 7.65948 3.86499 7.32628 3.94188C7.06998 4.01877 6.81368 4.07003 6.53175 4.09566V4.3007C6.81368 4.27505 7.09561 4.22381 7.37755 4.14692C7.71074 4.09568 7.99267 4.01877 8.2746 4.01877ZM6.89057 19.7045C4.35317 15.5268 4.40444 11.4515 4.40444 10.9389V1.07129H23.6271V10.9389C23.6271 11.4515 23.6784 15.5268 21.141 19.7045C18.8855 23.4978 15.4767 25.1637 14.0158 25.6763C12.5805 25.1637 9.17167 23.4978 6.89057 19.7045ZM12.0166 18.9356L11.504 18.5255L11.7859 17.9104L11.1196 18.0385L10.8376 17.449L10.5301 18.0385L9.88931 17.9104L10.1712 18.5255L9.65864 18.9356L10.2994 19.0894V19.7557L10.8376 19.3457L11.3502 19.7557V19.0894L12.0166 18.9356ZM14.7591 23.1133L15.3998 22.8057L14.7591 22.5238L14.9897 21.8574L14.3233 22.1137L14.0414 21.473L13.7595 22.0881L13.0931 21.8318L13.3494 22.4982L12.7086 22.7801L13.3494 23.0877L13.0931 23.7541L13.7595 23.4978L14.0414 24.1385L14.3233 23.4978L14.9897 23.7541L14.7591 23.1133ZM13.3494 15.4755L12.8368 15.9112L13.4775 16.065V16.7314L13.9902 16.3213L14.5284 16.7314L14.554 16.065L15.1948 15.9112L14.6822 15.4755L14.9641 14.8604L14.2977 14.9885L14.0158 14.399L13.7339 14.9885L13.0675 14.8604L13.3494 15.4755ZM15.6049 19.6789L15.9893 19.2688L15.4255 19.1663L15.1691 18.6536L14.9128 19.1663L14.349 19.2688L14.7591 19.6789L14.6565 20.2427L15.1691 19.9864L15.6818 20.2427L15.6049 19.6789ZM17.5015 17.6541L17.8091 17.1415H17.2196L16.9376 16.6289L16.6557 17.1415H16.0662L16.3738 17.6541L16.0662 18.1667H16.6557L16.9376 18.6793L17.2196 18.1667H17.8091L17.5015 17.6541ZM22.0124 5.30028C21.8586 5.37717 21.7305 5.50532 21.6536 5.6591C21.5767 5.78726 21.5511 5.91541 21.5511 6.04356C21.5511 6.06921 21.5511 6.09479 21.5511 6.14608C21.628 6.09484 21.7049 6.04356 21.7818 5.9923C21.833 5.94106 21.8843 5.86414 21.9355 5.81289C21.9868 5.71036 22.0124 5.55659 22.0124 5.42843C22.0124 5.3772 22.0124 5.32591 22.0124 5.30028ZM20.0133 8.24776C20.167 8.32466 20.3465 8.35028 20.5259 8.32466C20.7053 8.299 20.8334 8.22213 20.9616 8.09398C20.8078 8.01709 20.654 7.99146 20.4746 8.01709C20.2952 8.04274 20.1414 8.14524 20.0133 8.24776ZM20.0133 7.96583C20.0902 7.83768 20.1414 7.68389 20.1414 7.53012C20.1414 7.50446 20.1414 7.50446 20.1414 7.47888C19.9876 7.55577 19.8595 7.65829 19.757 7.78645C19.6801 7.91459 19.6288 8.06838 19.6288 8.22216C19.6288 8.24781 19.6288 8.24781 19.6288 8.27339C19.8082 8.22216 19.9364 8.11961 20.0133 7.96583ZM20.2183 7.91459C20.2695 7.91459 20.2952 7.91459 20.3208 7.88894C20.4233 7.81205 20.4746 7.70953 20.5259 7.58138C20.5515 7.50449 20.5771 7.40197 20.5771 7.32508C20.5771 7.24819 20.5515 7.1713 20.5259 7.0944C20.4233 7.1713 20.3465 7.24819 20.2952 7.35071C20.2952 7.58138 20.2695 7.76082 20.2183 7.91459ZM20.7053 7.50451C20.7053 7.53016 20.7053 7.53016 20.7053 7.50451C20.7565 7.50451 20.7822 7.47886 20.8078 7.45328C20.8847 7.35075 20.9103 7.24824 20.936 7.12008C20.936 7.09443 20.936 7.06885 20.936 7.0432C20.936 6.91504 20.8847 6.76126 20.8078 6.63311C20.7309 6.73563 20.654 6.83815 20.6284 6.94067C20.7053 7.17134 20.7309 7.3251 20.7053 7.50451ZM21.0641 6.99191C21.0641 7.01756 21.0641 7.01756 21.0641 6.99191C21.1153 6.99191 21.141 6.96626 21.1666 6.91501C21.1923 6.83812 21.2179 6.76123 21.2179 6.65871C21.2179 6.63306 21.2179 6.58182 21.2179 6.55619C21.1922 6.40241 21.1153 6.24863 20.9872 6.12047C20.936 6.223 20.9103 6.35115 20.9103 6.45367C20.9872 6.65871 21.0385 6.81249 21.0641 6.99191ZM21.3204 6.40241C21.3204 6.42806 21.3204 6.42806 21.3204 6.40241C21.3716 6.37676 21.3716 6.35117 21.3973 6.29989C21.3973 6.27424 21.3973 6.27424 21.3973 6.24866C21.3973 6.14613 21.3717 6.04362 21.3461 5.94109C21.2948 5.78731 21.1667 5.68479 21.0129 5.58226C20.9872 5.6335 20.9872 5.71042 20.9872 5.76168C20.9872 5.81292 20.9872 5.8642 21.0129 5.91546C21.1667 6.09487 21.2691 6.24863 21.3204 6.40241ZM21.4229 5.78728C21.4486 5.76163 21.4742 5.71039 21.4742 5.68476C21.4485 5.55661 21.4229 5.45409 21.346 5.35157C21.2435 5.22342 21.1153 5.12089 20.9359 5.06963C20.9359 5.19779 20.9616 5.32593 21.0128 5.42846C21.1922 5.50535 21.3204 5.6335 21.4229 5.78728ZM21.3973 5.04401C21.346 4.91585 21.2948 4.81334 21.1922 4.73644C21.0641 4.63392 20.9359 4.58266 20.7565 4.55703C20.7822 4.68518 20.8334 4.7877 20.9103 4.86459C21.0897 4.91583 21.2435 5.01838 21.3717 5.12089H21.3973C21.3973 5.12089 21.3973 5.09524 21.3973 5.04401ZM21.1922 4.55703C21.1922 4.5058 21.1666 4.48014 21.1666 4.42888C21.0897 4.32636 21.0128 4.24947 20.9103 4.19821C20.7565 4.12132 20.6027 4.09569 20.4233 4.12132C20.5002 4.22384 20.5515 4.32636 20.654 4.40325C20.859 4.40325 21.0385 4.45448 21.1922 4.55703ZM21.0897 7.83771C21.2435 7.78647 21.3717 7.65829 21.4742 7.50451C21.2948 7.47886 21.1153 7.47886 20.9616 7.53016C20.8334 7.5814 20.7053 7.70957 20.6027 7.83773C20.6796 7.83773 20.7822 7.86338 20.859 7.88896C20.9359 7.88896 21.0128 7.88894 21.0897 7.83771ZM21.5254 7.24821C21.6536 7.14569 21.7561 6.99191 21.833 6.8125C21.6536 6.8125 21.4742 6.86373 21.346 6.96628C21.2179 7.0688 21.1153 7.19695 21.0641 7.35073C21.141 7.32507 21.2435 7.32508 21.3204 7.32508C21.3973 7.32508 21.4742 7.29945 21.5254 7.24821ZM21.9868 6.06922C21.833 6.12045 21.6792 6.19737 21.5511 6.32552C21.4485 6.45367 21.3973 6.60745 21.3717 6.78687C21.4485 6.76121 21.5254 6.73563 21.628 6.70997C21.7048 6.65874 21.7561 6.60745 21.8074 6.55619C21.9355 6.42804 21.9868 6.24863 21.9868 6.06922ZM21.833 4.5314C21.7048 4.65955 21.6023 4.7877 21.5511 4.96711C21.5254 5.01835 21.5254 5.09527 21.5254 5.17216C21.5254 5.27468 21.5511 5.3772 21.5766 5.45409C21.6279 5.3772 21.7048 5.32594 21.7561 5.27468C21.8073 5.19779 21.8329 5.12089 21.8586 5.04401C21.8842 4.99277 21.8842 4.91585 21.8842 4.8646C21.9099 4.76207 21.8842 4.65955 21.833 4.5314ZM21.3204 4.32636C21.3204 4.48014 21.3716 4.63392 21.4742 4.7877C21.4998 4.71081 21.5511 4.63392 21.6023 4.55703C21.628 4.48014 21.6536 4.40325 21.6536 4.32636C21.6536 4.14694 21.6023 3.99317 21.4998 3.83939C21.3973 3.99317 21.3204 4.14694 21.3204 4.32636ZM20.9103 3.58308C20.9103 3.63432 20.9103 3.71123 20.936 3.76249C20.9616 3.91627 21.0641 4.04443 21.1923 4.17257C21.2179 4.09569 21.2435 3.99317 21.2691 3.91627C21.2691 3.89062 21.2691 3.89062 21.2691 3.86504C21.2691 3.8138 21.2691 3.76251 21.2435 3.68562C21.1923 3.53184 21.1153 3.37806 20.9616 3.24991C20.9359 3.35243 20.9103 3.45493 20.9103 3.58308ZM20.8334 3.89064C20.7309 3.81376 20.6284 3.76249 20.5259 3.71123C20.3721 3.66 20.1927 3.68558 20.0389 3.73688C20.1158 3.83941 20.2183 3.91629 20.3208 3.96755C20.5002 3.9419 20.7053 3.9419 20.859 3.99321H20.8847C20.859 3.96755 20.859 3.94193 20.8334 3.89064ZM20.3464 2.91669C20.3464 3.04485 20.3721 3.17299 20.4233 3.30115C20.5002 3.45493 20.6284 3.55745 20.7822 3.63434C20.7822 3.53182 20.7822 3.45493 20.8078 3.35241C20.7822 3.27552 20.7822 3.19863 20.7309 3.14736C20.654 2.99358 20.5259 2.86544 20.3721 2.78854C20.3464 2.83978 20.3464 2.86544 20.3464 2.91669ZM19.68 2.96793C19.7313 3.14734 19.8338 3.30112 19.962 3.37801C20.0901 3.4549 20.2439 3.50616 20.3977 3.53179C20.3465 3.48056 20.3208 3.42927 20.2695 3.35238C20.2439 3.30115 20.2183 3.22423 20.1927 3.17297C20.167 3.14732 20.167 3.14732 20.1414 3.12173C20.0389 3.01921 19.8851 2.96793 19.68 2.96793ZM17.6809 6.99188C17.6809 7.12003 17.7834 7.27381 18.0141 7.27381H18.4498C18.3986 7.42759 18.3473 7.65826 18.3473 7.88894C18.3473 8.1965 18.3985 8.4528 18.5011 8.63221C18.1679 8.58098 17.9372 8.50407 17.7065 8.37591H17.6809L17.6296 8.50407H17.6553C17.8603 8.60658 18.0397 8.65784 18.2704 8.73474C18.2704 8.73474 18.4498 8.76039 18.578 8.78597C18.5523 8.81162 18.5267 8.86286 18.5267 8.91412C18.5267 9.01664 18.6036 9.09354 18.7062 9.09354C18.8087 9.09354 18.8856 9.01664 18.8856 8.91412C18.8856 8.86288 18.8599 8.8116 18.8343 8.78597C18.9625 8.76032 19.1163 8.73474 19.1163 8.73474C19.3469 8.6835 19.552 8.63221 19.757 8.50407H19.7827L19.7314 8.35028H19.7058C19.4751 8.47843 19.2444 8.55533 18.9113 8.60658C18.9881 8.42717 19.065 8.17087 19.065 7.8633C19.065 7.63263 19.0394 7.40196 18.9625 7.24818H19.3982C19.6289 7.24818 19.7314 7.12003 19.7314 6.96625C19.7314 6.86372 19.6545 6.76121 19.5264 6.76121C19.4239 6.76121 19.3213 6.8381 19.3213 6.96625C19.3213 6.9919 19.3213 7.01748 19.347 7.04314C19.3726 7.06879 19.3726 7.12003 19.2957 7.12003H19.0394V3.86499C19.0394 3.42927 19.0138 2.89103 18.7575 2.37843L18.6806 2.22465L18.6037 2.37843C18.3474 2.89103 18.3218 3.42927 18.3218 3.86499V7.12003H18.0655C17.9886 7.12003 18.0143 7.06879 18.0143 7.04314C18.0143 7.01749 18.0399 6.99191 18.0399 6.96625C18.0399 6.86372 17.963 6.76121 17.8605 6.76121C17.7836 6.78686 17.6809 6.88936 17.6809 6.99188ZM17.1427 7.37633C17.0914 7.27381 17.0145 7.19692 16.912 7.12003C16.8863 7.19692 16.8608 7.27381 16.8608 7.3507C16.8608 7.42759 16.8864 7.53012 16.912 7.607C16.9376 7.73516 17.0145 7.81205 17.0914 7.91457C17.117 7.91457 17.1683 7.94022 17.1939 7.94022V7.91457C17.1427 7.76079 17.117 7.58138 17.1427 7.37633ZM16.9889 4.12129C16.8351 4.09564 16.6557 4.12129 16.5019 4.19818C16.3994 4.24941 16.2969 4.32633 16.2456 4.42885C16.2456 4.48008 16.2456 4.50574 16.2199 4.55701H16.2456C16.3994 4.45448 16.5788 4.40322 16.7838 4.40322C16.8607 4.32633 16.9376 4.22381 16.9889 4.12129ZM16.8095 6.96625C16.7838 6.86372 16.7069 6.76121 16.6301 6.65868C16.5532 6.78684 16.5019 6.91499 16.5019 7.06877C16.5019 7.09442 16.5019 7.12001 16.5019 7.14566C16.5019 7.27381 16.5531 7.37633 16.6301 7.47885C16.6557 7.50451 16.7069 7.53009 16.7326 7.55575V7.53009C16.7069 7.32505 16.7326 7.17129 16.8095 6.96625ZM16.22 6.68431C16.22 6.76121 16.2456 6.8381 16.2712 6.94062C16.2968 6.96627 16.3224 6.99185 16.3481 7.01751C16.3481 7.01751 16.3481 6.99186 16.3737 6.99186C16.3994 6.81245 16.4506 6.63303 16.5532 6.47925C16.5532 6.3511 16.5019 6.24858 16.4506 6.14606C16.3225 6.27421 16.2456 6.42799 16.22 6.58178C16.22 6.60743 16.22 6.65868 16.22 6.68431ZM16.425 5.96667C16.4507 5.91543 16.4507 5.86414 16.4507 5.81289C16.4507 5.76165 16.425 5.68473 16.425 5.63347C16.2712 5.736 16.1687 5.83852 16.0918 5.9923C16.0406 6.09482 16.0406 6.19734 16.0406 6.29986C16.0406 6.32551 16.0406 6.32551 16.0406 6.3511C16.0662 6.37675 16.0918 6.42798 16.0918 6.45361C16.0918 6.45361 16.1175 6.45361 16.1175 6.42796C16.1687 6.24855 16.2712 6.09482 16.425 5.96667ZM16.0406 5.04398C16.0406 5.06963 16.0406 5.12087 16.0406 5.1465H16.0662C16.1944 5.01835 16.3481 4.94146 16.5275 4.89019C16.6044 4.78768 16.6557 4.68515 16.6813 4.58264C16.5019 4.60829 16.3481 4.65952 16.22 4.76205C16.1431 4.81328 16.0662 4.94146 16.0406 5.04398ZM15.9637 5.68473C15.9893 5.71039 15.9893 5.76163 15.9893 5.81289C15.9893 5.81289 15.9893 5.81289 16.015 5.81289C16.1175 5.6591 16.2456 5.53095 16.4251 5.45406C16.4763 5.35154 16.5019 5.22339 16.5019 5.09524C16.3225 5.14648 16.1944 5.24902 16.0919 5.37717C16.015 5.45406 15.9637 5.55659 15.9637 5.68473ZM15.8611 6.32549C15.7586 6.19734 15.6048 6.12045 15.4254 6.06919C15.4511 6.2486 15.5023 6.40238 15.6048 6.53054C15.6561 6.58177 15.733 6.63305 15.7842 6.68431C15.8611 6.70997 15.938 6.73555 16.0149 6.76121C16.0149 6.60742 15.9637 6.45364 15.8611 6.32549ZM15.6048 6.81247C15.6561 6.99188 15.7586 7.14566 15.8868 7.24818C15.938 7.29942 16.0149 7.32507 16.0918 7.3507C16.1943 7.3507 16.2712 7.3507 16.3481 7.37635C16.2712 7.22257 16.1943 7.06879 16.0662 6.9919C15.9637 6.86374 15.7843 6.81247 15.6048 6.81247ZM15.9637 7.53012C16.0662 7.68389 16.1687 7.78642 16.3481 7.8633C16.425 7.88896 16.5019 7.91454 16.5788 7.91454C16.6557 7.88889 16.7582 7.88889 16.8351 7.8633C16.7326 7.73516 16.6044 7.607 16.4763 7.55575C16.3225 7.47885 16.1431 7.47887 15.9637 7.53012ZM16.4763 8.11961C16.6044 8.24776 16.7582 8.32465 16.9376 8.35028C17.0914 8.37593 17.2708 8.32463 17.4246 8.27339C17.2964 8.14524 17.1427 8.06835 16.9632 8.04272C16.8095 7.99149 16.6301 8.04272 16.4763 8.11961ZM17.809 8.27339C17.809 8.24774 17.809 8.24774 17.809 8.22216C17.809 8.06837 17.7578 7.91459 17.6809 7.78645C17.5784 7.65829 17.4502 7.55577 17.2964 7.47888C17.2964 7.50453 17.2964 7.50453 17.2964 7.53012C17.2964 7.68389 17.3477 7.83767 17.4246 7.96583C17.5015 8.11961 17.6296 8.22213 17.809 8.27339ZM17.1427 3.35238C17.117 3.40362 17.0658 3.48053 17.0145 3.53179C17.1683 3.53179 17.3221 3.48056 17.4502 3.37801C17.5784 3.27549 17.6809 3.12171 17.7578 2.96793C17.5784 2.96793 17.399 3.01916 17.2708 3.12171C17.2452 3.14736 17.2452 3.14736 17.2196 3.17295C17.1939 3.22418 17.1683 3.30112 17.1427 3.35238ZM16.6301 3.35238C16.6557 3.4549 16.6557 3.53179 16.6557 3.63431C16.8095 3.55742 16.9376 3.42927 16.9889 3.30112C17.0658 3.17297 17.0914 3.04482 17.0914 2.91666C17.0914 2.86543 17.0914 2.83978 17.0658 2.78852C16.912 2.86541 16.7838 2.99356 16.7069 3.14734C16.6813 3.22423 16.6557 3.27549 16.6301 3.35238ZM16.5532 4.01877C16.7582 3.96753 16.9376 3.96753 17.117 3.99312C17.2195 3.94188 17.3221 3.86497 17.399 3.76244C17.2452 3.71121 17.0658 3.68555 16.912 3.73679C16.7838 3.76244 16.6813 3.81369 16.6044 3.9162C16.5788 3.94185 16.5787 3.96748 16.5532 4.01877ZM16.1431 3.86499C16.1431 3.89064 16.1431 3.89064 16.1431 3.91622C16.1943 3.99312 16.22 4.09564 16.22 4.17253C16.3481 4.04438 16.425 3.91622 16.4763 3.76244C16.5019 3.71121 16.5019 3.63429 16.5019 3.58303C16.5019 3.48051 16.4763 3.35236 16.425 3.24984C16.2969 3.37799 16.1944 3.50614 16.1431 3.68555C16.1687 3.73679 16.1431 3.7881 16.1431 3.86499ZM15.7842 4.32633C15.7842 4.40322 15.8099 4.48011 15.8355 4.55701C15.8867 4.63389 15.938 4.71078 15.9636 4.78768C16.0405 4.65952 16.1174 4.50574 16.1174 4.32633C16.1174 4.17255 16.0405 3.99314 15.9636 3.83936C15.8611 3.99314 15.7842 4.14692 15.7842 4.32633ZM15.5279 4.86457C15.5279 4.94146 15.5279 4.99272 15.5536 5.04398C15.5793 5.12087 15.6048 5.19776 15.6561 5.27465C15.733 5.32589 15.7843 5.37717 15.8355 5.45406C15.8612 5.35154 15.8868 5.24902 15.8868 5.17213C15.8868 5.09524 15.8868 5.04398 15.8611 4.96709C15.8099 4.81331 15.7073 4.65952 15.5792 4.53137C15.5535 4.63389 15.5279 4.76205 15.5279 4.86457ZM15.3998 5.4028C15.3998 5.53095 15.4255 5.68473 15.5023 5.78726C15.528 5.86414 15.5792 5.91541 15.6561 5.96667C15.733 5.99232 15.8099 6.04356 15.8868 6.09482C15.8868 6.06917 15.8868 6.01793 15.8868 5.9923C15.8868 5.86414 15.8611 5.736 15.7842 5.60785C15.7074 5.45406 15.5792 5.32591 15.3998 5.24902C15.3998 5.32591 15.3998 5.37717 15.3998 5.4028ZM9.17164 7.42759C9.35105 7.29944 9.58173 7.24818 9.86366 7.24818C10.1712 7.24818 10.4788 7.29942 10.812 7.40196C11.1452 7.47885 11.5296 7.58138 11.8885 7.55575C11.8885 7.37633 11.8885 3.7881 11.8885 3.12171C11.8885 3.07048 11.8885 3.04482 11.8885 3.01919C11.504 3.04484 11.1195 2.9423 10.7607 2.86541C10.4532 2.78852 10.1456 2.71162 9.88929 2.73725C9.50484 2.73725 9.29979 2.86541 9.17164 2.96793V3.12171V7.42759ZM6.27543 7.53012C6.63425 7.55577 6.99307 7.47888 7.35189 7.37633C7.68509 7.29944 7.99265 7.22255 8.30021 7.22255C8.58215 7.22255 8.81282 7.29944 8.99224 7.40196V3.12171V2.96793C8.86408 2.83978 8.65904 2.73725 8.27458 2.73725C7.99265 2.73725 7.71072 2.78849 7.40316 2.86541C7.04433 2.96793 6.68551 3.04482 6.27543 3.01919C6.27543 3.04484 6.27543 3.07042 6.27543 3.12171C6.27543 3.76247 6.27543 7.37633 6.27543 7.53012ZM5.5834 8.24776C5.5834 8.24776 8.58215 8.24776 8.68467 8.24776C8.76156 8.37591 8.88971 8.47843 9.06912 8.47843C9.24854 8.47843 9.40232 8.37591 9.45358 8.24776C9.5561 8.24776 12.5548 8.24776 12.5548 8.24776V3.12171H12.4523H12.1704L12.196 3.22423V3.24988V7.88896C11.9654 7.88896 9.4536 7.88896 9.32544 7.88896C9.27421 7.96585 9.22293 7.99148 9.06914 7.99148C8.94099 7.99148 8.88973 7.96583 8.83847 7.88896C8.71032 7.88896 6.4036 7.88896 5.94225 7.88896V3.24988V3.22423L5.9679 3.12171H5.58345L5.5834 8.24776ZM6.71114 18.5255L14.0158 11.9642L21.346 18.5511C21.833 17.6284 22.1662 16.7314 22.4481 15.8856L14.0158 8.29902L5.60904 15.8599C5.86534 16.7057 6.22417 17.6028 6.71114 18.5255ZM8.27458 6.12045C8.454 6.12045 8.60778 6.1461 8.7103 6.19734V5.96667C8.58215 5.91543 8.42837 5.91543 8.27458 5.88977C7.96702 5.88977 7.65946 5.96667 7.32626 6.04356C7.06996 6.12045 6.81366 6.17171 6.53173 6.19734V6.40238C6.81366 6.37673 7.09559 6.29986 7.37752 6.2486C7.71072 6.19737 7.99265 6.12045 8.27458 6.12045ZM8.27458 6.65868C8.454 6.65868 8.60778 6.68433 8.7103 6.73558V6.5049C8.58215 6.45367 8.42837 6.42801 8.27458 6.42801C7.96702 6.42801 7.65946 6.5049 7.32626 6.5818C7.06996 6.65868 6.81366 6.70994 6.53173 6.73558V6.94062C6.81366 6.91497 7.09559 6.8381 7.37752 6.78684C7.71072 6.70995 7.99265 6.63305 8.27458 6.65868ZM8.27458 3.50616C8.454 3.50616 8.60778 3.5574 8.7103 3.58306V3.35238C8.58215 3.30115 8.42837 3.30115 8.27458 3.27549C7.96702 3.27549 7.65946 3.35238 7.32626 3.42927C7.06996 3.50616 6.81366 3.55742 6.53173 3.58306V3.7881C6.81366 3.76244 7.09559 3.7112 7.37752 3.63431C7.71072 3.55742 7.99265 3.50616 8.27458 3.50616ZM10.7607 4.71078C11.017 4.78768 11.299 4.83894 11.6065 4.86457V4.65952C11.3502 4.63387 11.0683 4.58264 10.812 4.50574C10.4788 4.42885 10.1712 4.35196 9.86366 4.35196C9.70988 4.35196 9.5561 4.37762 9.42795 4.42885V4.65952C9.53047 4.60829 9.68425 4.58264 9.86366 4.58264C10.1456 4.5314 10.4532 4.60829 10.7607 4.71078ZM10.7607 3.65994C11.017 3.73683 11.299 3.7881 11.6065 3.81373V3.60869C11.3502 3.58303 11.0683 3.53179 10.812 3.4549C10.4788 3.37801 10.1712 3.30112 9.86366 3.30112C9.70988 3.30112 9.5561 3.32677 9.42795 3.37801V3.60869C9.53047 3.55745 9.68425 3.53179 9.86366 3.53179C10.1456 3.50614 10.4532 3.55745 10.7607 3.65994ZM10.7607 5.736C11.017 5.78723 11.3246 5.86414 11.6065 5.88977V5.68473C11.3246 5.65908 11.0683 5.60785 10.812 5.53095C10.4788 5.45406 10.1712 5.37717 9.88929 5.37717C9.73551 5.37717 9.58173 5.40282 9.45358 5.4284V5.65907C9.5561 5.60784 9.70988 5.58219 9.88929 5.58219C10.1456 5.58219 10.4532 5.6591 10.7607 5.736ZM10.7607 4.17255C11.017 4.24944 11.299 4.3007 11.6065 4.32633V4.12129C11.3502 4.09564 11.0683 4.0444 10.812 3.96751C10.4788 3.89061 10.1712 3.81373 9.86366 3.81373C9.70988 3.81373 9.5561 3.83938 9.42795 3.89061V4.12129C9.53047 4.07006 9.68425 4.0444 9.86366 4.0444C10.1456 4.01875 10.4532 4.09563 10.7607 4.17255ZM10.7607 6.27423C11.017 6.35113 11.299 6.40238 11.6065 6.42801V6.22297C11.3502 6.19732 11.0683 6.12045 10.812 6.06919C10.4788 5.9923 10.1712 5.91541 9.86366 5.91541C9.70988 5.91541 9.5561 5.94106 9.42795 5.9923V6.22297C9.53047 6.17174 9.68425 6.14608 9.86366 6.14608C10.1456 6.12043 10.4532 6.19731 10.7607 6.27423ZM10.7607 6.78684C11.017 6.86372 11.299 6.91499 11.6065 6.94062V6.73558C11.3502 6.70992 11.0683 6.65868 10.812 6.5818C10.4788 6.5049 10.1712 6.42801 9.86366 6.42801C9.70988 6.42801 9.5561 6.45366 9.42795 6.5049V6.73558C9.53047 6.68434 9.68425 6.65868 9.86366 6.65868C10.1456 6.63303 10.4532 6.70992 10.7607 6.78684ZM27.1128 17.6797L27.0616 17.8078C26.5746 19.4226 25.7545 21.0373 25.165 22.0881L25.0368 22.2931L24.191 21.5242C24.1653 21.5755 24.1141 21.6524 24.0885 21.7037C21.9355 25.1381 18.9112 27.6242 15.2973 28.957L14.0158 29.4184L12.7343 28.957C9.14604 27.6499 6.09604 25.1381 3.96873 21.7037C3.94308 21.6524 3.91749 21.5755 3.86621 21.5242L2.99478 22.2931L2.86662 22.0625C2.27713 20.986 1.48259 19.3713 0.969988 17.7822L0.944336 17.6797L3.02039 15.8087L3.27669 15.578L3.37921 15.8856C3.48173 16.27 3.60988 16.6289 3.73804 16.9877L4.32753 16.4494L4.5582 16.2444L4.66072 16.552C5.09644 17.8591 5.68594 19.0894 6.37795 20.1915C8.1977 23.0877 10.7351 25.1894 13.7338 26.2915C13.7338 26.2915 13.9389 26.3684 14.0414 26.394C14.1439 26.3683 14.349 26.2915 14.349 26.2915C17.3477 25.1894 19.9107 23.0877 21.7048 20.1915C22.3969 19.0894 22.9864 17.8591 23.4221 16.552L23.5246 16.2444L24.3448 16.9877C24.4729 16.6289 24.6011 16.27 24.7036 15.8856L24.8061 15.578L27.1128 17.6797ZM2.66156 20.7553L2.27711 18.3205L3.40483 17.2952C3.27669 16.9877 3.17416 16.6545 3.07164 16.3213C2.73845 16.6289 1.58508 17.6541 1.4313 17.8078C1.7645 18.8331 2.20021 19.8583 2.66156 20.7553ZM3.66114 21.1654C3.40483 20.7297 3.14853 20.2684 2.94349 19.807L3.22542 21.5755C3.30232 21.473 3.48173 21.3192 3.66114 21.1654ZM25.1137 19.807C24.9086 20.2684 24.6523 20.7297 24.396 21.1654C24.5754 21.3192 24.7292 21.473 24.8317 21.5755L25.1137 19.807ZM25.2674 18.3973C25.088 18.2436 23.9859 17.244 23.6784 16.9621C23.2427 18.1923 22.7044 19.3713 22.038 20.4221C20.1927 23.3952 17.5784 25.5482 14.4771 26.7015L14.0158 26.8553L13.58 26.7015C10.4788 25.5738 7.89013 23.3952 6.01912 20.4221C5.35273 19.3713 4.8145 18.1923 4.37878 16.9621C4.04559 17.244 2.96912 18.2436 2.78971 18.3973C3.19979 19.4738 3.73803 20.5247 4.32752 21.473C6.42921 24.8305 9.40232 27.2654 12.9137 28.5469C12.9137 28.5469 13.9389 28.9058 14.0414 28.957C14.1695 28.9058 15.1948 28.5469 15.1948 28.5469C18.7061 27.2654 21.6792 24.8049 23.7809 21.473C24.3191 20.5503 24.8574 19.4994 25.2674 18.3973ZM26.6258 17.7822C26.4721 17.6284 25.3187 16.6032 24.9855 16.2957C24.883 16.6289 24.7805 16.9621 24.6523 17.2696L25.7801 18.2948L25.3956 20.7553C25.8313 19.8583 26.2927 18.8331 26.6258 17.7822ZM4.53257 20.9091L4.55822 21.0116L4.48133 21.0629C4.43009 20.986 4.40443 20.9091 4.35317 20.8066C4.30194 20.7297 4.25066 20.6528 4.19939 20.5503L4.27629 20.5246L4.35317 20.6015C4.43007 20.5246 4.55822 20.4221 4.60948 20.3196L4.43007 19.9864L4.07125 20.0633L4.0969 20.1658L4.04566 20.1914C4.02001 20.1145 3.96877 20.0633 3.94314 19.9864C3.91749 19.9352 3.89191 19.8839 3.84062 19.807L3.91751 19.7813L3.9944 19.8582C4.2507 19.8582 4.78894 19.7557 5.12213 19.7044C5.17336 19.7813 5.25028 19.8326 5.30154 19.8839L5.32719 19.9864L4.994 20.3965C4.81459 20.5759 4.60946 20.8322 4.53257 20.9091ZM4.73761 20.2171L5.04517 19.8839L4.58382 19.9864L4.73761 20.2171ZM6.60862 22.1137L6.65985 22.0625C6.60862 22.0113 6.58296 21.96 6.5317 21.8831C6.48047 21.8319 6.45481 21.7549 6.40355 21.7037L6.32666 21.7549L6.3779 21.8574C6.19848 21.9856 5.7884 22.3188 5.7884 22.3188C5.89091 22.0112 6.01907 21.6524 6.14722 21.3448C6.09598 21.2936 6.07033 21.2423 6.01907 21.191C5.99342 21.1398 5.94218 21.0885 5.91654 21.0373L5.86531 21.0885L5.91654 21.191C5.83966 21.2679 5.76277 21.3192 5.66024 21.3961L5.37832 21.6011C5.27579 21.678 5.1989 21.7293 5.09638 21.7805L5.01949 21.7036L4.96825 21.7549C5.01949 21.8061 5.04515 21.8574 5.0964 21.9343C5.14764 21.9855 5.1733 22.0624 5.22456 22.1137L5.27579 22.0624L5.1989 21.9343C5.37832 21.8061 5.60899 21.6267 5.81403 21.473C5.68587 21.7805 5.58336 22.1137 5.4552 22.4725C5.48085 22.4982 5.50644 22.5494 5.53209 22.5751C5.55775 22.6007 5.58333 22.6519 5.60899 22.6776C5.7115 22.6007 5.81403 22.4982 5.96781 22.3956L6.24974 22.1906C6.35226 22.1137 6.45478 22.0624 6.53167 22.0112L6.60862 22.1137ZM6.71114 23.0621C6.42921 23.3184 6.45484 23.7028 6.68549 23.9335C6.83927 24.0873 6.99305 24.1898 7.27498 24.2154L7.30063 24.0616C7.14685 24.036 7.0187 23.9847 6.94181 23.8822C6.7624 23.7028 6.7624 23.4465 6.96746 23.2415C7.1725 23.0364 7.40318 23.1133 7.53133 23.2671C7.60822 23.344 7.65948 23.4465 7.65948 23.549L7.60824 23.6516L7.65948 23.7285C7.73637 23.6772 7.83889 23.6003 7.91578 23.5747C7.86455 23.4209 7.78763 23.3184 7.68511 23.1902C7.40318 22.857 6.99307 22.8057 6.71114 23.0621ZM9.19728 25.42C8.9666 25.702 8.60778 25.7276 8.24896 25.4457C7.91576 25.1638 7.8645 24.8306 8.1208 24.4974C8.35147 24.2154 8.73593 24.1898 9.06912 24.4717C9.40232 24.7536 9.45358 25.1125 9.19728 25.42ZM8.94097 24.6255C8.76156 24.4717 8.53088 24.5486 8.35147 24.728C8.17206 24.9331 8.17206 25.1637 8.35147 25.3175C8.53088 25.4713 8.76156 25.3944 8.94097 25.215C9.09475 25.01 9.12038 24.7537 8.94097 24.6255ZM10.9914 26.2658C10.9145 26.4196 10.7351 26.4452 10.5557 26.3684C10.5813 26.4965 10.6326 26.9322 10.6582 27.0091L10.6839 27.0603L10.6326 27.1372C10.5301 27.0603 10.4019 27.0091 10.2994 26.9578C10.2994 26.7528 10.2738 26.4452 10.2482 26.2658L10.1713 26.2146L10.1201 26.3171C10.0432 26.4196 9.99191 26.5221 9.96628 26.599L10.0432 26.6759L9.99194 26.7528C9.91505 26.7016 9.83815 26.6503 9.76127 26.599C9.68437 26.5478 9.60748 26.4965 9.50496 26.4452L9.5562 26.3684L9.65872 26.4196C9.73561 26.3427 9.78687 26.2402 9.86376 26.1377L10.0432 25.8301C10.1201 25.7276 10.1713 25.6251 10.2226 25.5482L10.1457 25.4713L10.1969 25.3944C10.2482 25.4456 10.3251 25.4713 10.3763 25.5225C10.4532 25.5738 10.5301 25.5994 10.607 25.6507C10.6839 25.7019 10.7608 25.7276 10.8377 25.7788C11.094 25.9326 11.0939 26.1121 10.9914 26.2658ZM10.6069 25.8301C10.53 25.7789 10.5044 25.7789 10.4532 25.7532C10.4275 25.8045 10.3763 25.8814 10.325 25.9583L10.2738 26.0352C10.2994 26.0608 10.325 26.0864 10.3507 26.1121C10.5044 26.2146 10.6326 26.2146 10.7095 26.0864C10.7607 25.9839 10.7351 25.907 10.6069 25.8301ZM12.5548 27.2142C12.5292 27.4448 12.5036 27.778 12.5036 27.9062L12.5805 27.9574L12.5548 28.0343C12.478 27.9831 12.3754 27.9574 12.2985 27.9062C12.2216 27.8549 12.1191 27.8293 12.0422 27.8036L12.0679 27.7267L12.1704 27.7524C12.1961 27.6499 12.2216 27.4961 12.2216 27.3936L11.8628 27.2398L11.6321 27.5217L11.709 27.5729L11.6834 27.6498C11.6065 27.6242 11.5296 27.5729 11.4783 27.5473C11.4271 27.5217 11.3502 27.4961 11.2989 27.4704L11.3246 27.3935L11.4271 27.4192C11.6321 27.2654 11.991 26.881 12.2473 26.599C12.3498 26.6247 12.4267 26.6247 12.5036 26.6503L12.6061 26.7271L12.5548 27.2142ZM12.2985 26.7528L11.991 27.1116L12.2473 27.2398L12.2985 26.7528ZM16.0662 27.6499C16.0149 27.5473 15.9637 27.4705 15.9124 27.3423L15.7842 27.0347C15.733 26.9066 15.6817 26.8297 15.6561 26.7272L15.7586 26.6759L15.733 26.5991C15.6561 26.6503 15.5536 26.6759 15.4767 26.7272C15.3998 26.7529 15.2973 26.8041 15.2204 26.8297L15.246 26.9066L15.3485 26.881C15.3998 26.9835 15.4511 27.0604 15.5023 27.1885L15.6305 27.4961C15.6817 27.6242 15.7074 27.7011 15.7586 27.8037L15.6561 27.8549L15.6818 27.9318C15.7586 27.8805 15.8612 27.8549 15.9381 27.8036C16.0149 27.778 16.1175 27.7267 16.1944 27.7011L16.1687 27.6242L16.0662 27.6499ZM18.2704 26.4709C18.2192 26.394 18.1422 26.2915 18.091 26.1889L17.9116 25.8814C17.8347 25.7789 17.7834 25.6763 17.7578 25.5995L17.8347 25.5226L17.7834 25.4457C17.7065 25.4969 17.6297 25.5482 17.5784 25.5738C17.5015 25.6251 17.4246 25.6507 17.3477 25.702C17.399 25.8558 17.5015 26.4709 17.5271 26.599C17.399 26.4965 16.9376 26.1377 16.8351 26.0095C16.7582 26.0608 16.6813 26.1121 16.6301 26.1377C16.5532 26.1889 16.4763 26.2146 16.3994 26.2658L16.4506 26.3427L16.5532 26.3171L16.6301 26.4709C16.7069 26.6246 16.9889 27.086 17.0401 27.2141L16.9632 27.291L17.0145 27.3679C17.0657 27.3423 17.1426 27.291 17.1939 27.2654C17.2451 27.2397 17.322 27.1885 17.3733 27.1629L17.3221 27.086L17.2195 27.1372C17.1683 27.0603 17.0914 26.9578 17.0401 26.8553L16.9376 26.6759C16.8607 26.5221 16.7838 26.4196 16.7582 26.3683C17.1939 26.7528 17.4502 26.9322 17.5527 27.0347L17.7065 26.9322L17.5015 25.907C17.5271 25.9582 17.604 26.0607 17.6809 26.2145L17.7834 26.3939C17.8603 26.4965 17.8859 26.599 17.9372 26.7015L17.8603 26.7784L17.886 26.8553C17.9628 26.8041 18.0397 26.7528 18.1166 26.7015C18.1935 26.6503 18.296 26.599 18.3729 26.5477L18.3473 26.4708L18.2704 26.4709ZM19.4494 25.5738C19.3725 25.4969 19.2956 25.42 19.2187 25.3175L19.0649 25.1125C18.988 25.0356 18.9111 24.9331 18.8599 24.8305C18.8855 24.8049 18.9111 24.7537 18.9624 24.728C19.0906 24.6255 19.1931 24.6511 19.27 24.728C19.3469 24.8305 19.3725 24.9587 19.2443 25.0356C19.2187 25.0612 19.1931 25.0868 19.1674 25.0868L19.2187 25.2406C19.2699 25.215 19.3212 25.1637 19.3724 25.1381C19.6287 24.933 19.6287 24.6767 19.5006 24.4973C19.3724 24.3435 19.1674 24.3179 18.9624 24.4973C18.9111 24.5486 18.8598 24.5998 18.7829 24.6511C18.706 24.728 18.6292 24.7793 18.5779 24.8305C18.5267 24.8818 18.4498 24.933 18.3729 24.9843L18.4241 25.0355L18.5266 24.9843C18.6035 25.0612 18.6804 25.1381 18.7573 25.2406L18.9623 25.5225C19.0392 25.6251 19.1161 25.7019 19.1674 25.7788L19.0905 25.8557L19.1417 25.907C19.2186 25.8557 19.2955 25.7788 19.3724 25.7276C19.4493 25.6763 19.5262 25.625 19.6287 25.5225L19.5775 25.4713L19.4494 25.5738ZM21.4742 23.7284L21.5254 23.7797C21.4485 23.8309 21.3973 23.9078 21.3204 23.9847C21.2435 24.0616 21.1922 24.1385 21.1153 24.1898L21.0641 24.1385L21.1153 24.0616C21.0384 24.0104 20.8846 23.9335 20.7821 23.8822L20.5002 24.1642L20.6796 24.4717L20.7565 24.4205L20.8077 24.4717C20.7565 24.5229 20.7052 24.5742 20.6539 24.6255C20.6027 24.6767 20.5514 24.728 20.5258 24.7793L20.4746 24.728L20.5258 24.6512C20.4489 24.4205 20.1926 23.9335 20.0388 23.6003C20.0901 23.5234 20.1413 23.4465 20.167 23.3696L20.2695 23.3184L20.7308 23.5235C20.9359 23.626 21.2434 23.7541 21.346 23.7798L21.4742 23.7284ZM20.6796 23.8053L20.2439 23.6003L20.4746 24.0104L20.6796 23.8053ZM22.7813 22.0625L22.8325 22.1137C22.7557 22.2162 22.6788 22.3187 22.6275 22.4213C22.3968 22.4213 22.0893 22.3956 21.9099 22.3956L21.8586 22.4725L21.9355 22.5494C22.038 22.6263 22.1149 22.6776 22.2174 22.7288L22.2943 22.6519L22.3712 22.7032C22.32 22.7801 22.2431 22.8569 22.1918 22.9338C22.1406 23.0107 22.0893 23.0876 22.0124 23.1645L21.9355 23.1133L21.9867 23.0107C21.9099 22.9339 21.833 22.8826 21.7304 22.8057L21.4485 22.6007C21.346 22.5238 21.2691 22.4725 21.1666 22.3956L21.0897 22.4725L21.0128 22.4213C21.064 22.37 21.1153 22.3188 21.141 22.2419C21.1922 22.165 21.2435 22.1137 21.2947 22.0368C21.346 21.9599 21.3973 21.9087 21.4485 21.8318C21.6536 21.5498 21.833 21.5755 21.9611 21.678C22.0893 21.7805 22.1149 21.9599 22.038 22.1137C22.1662 22.1137 22.6019 22.0881 22.6788 22.0881L22.7813 22.0625ZM21.833 21.96C21.7561 21.8831 21.6536 21.9087 21.5767 22.0368C21.5255 22.0881 21.4998 22.1394 21.4742 22.165C21.5254 22.1906 21.5767 22.2675 21.6792 22.3188L21.7561 22.37C21.7818 22.3444 21.8073 22.3188 21.833 22.2931C21.9355 22.165 21.9355 22.0625 21.833 21.96ZM23.6527 20.8835C23.4221 21.2679 23.0889 21.3705 22.7557 21.1654C22.4481 20.986 22.3456 20.6272 22.5763 20.2427C22.8069 19.8583 23.1145 19.7557 23.4733 19.9608C23.7809 20.1146 23.8834 20.499 23.6527 20.8835ZM23.2939 20.2427C23.0632 20.1146 22.8326 20.1402 22.7044 20.3196C22.5763 20.5247 22.6788 20.7297 22.9095 20.8835C23.1401 21.0116 23.3708 20.986 23.499 20.8066C23.6271 20.6015 23.5246 20.3709 23.2939 20.2427ZM14.0158 27.4961C13.8876 27.4961 13.7595 27.6242 13.7595 27.778C13.7595 27.9318 13.8876 28.06 14.0158 28.06C14.1695 28.06 14.2977 27.9318 14.2977 27.778C14.2977 27.6242 14.1695 27.4961 14.0158 27.4961ZM4.01996 18.9612C4.17374 18.9612 4.3019 18.8331 4.3019 18.7049C4.3019 18.5511 4.17374 18.423 4.01996 18.423C3.86618 18.423 3.76366 18.5511 3.76366 18.7049C3.76366 18.8331 3.89181 18.9612 4.01996 18.9612ZM24.0628 18.9612C24.2166 18.9612 24.3448 18.8331 24.3448 18.7049C24.3448 18.5511 24.2166 18.423 24.0628 18.423C23.9347 18.423 23.8065 18.5511 23.8065 18.7049C23.7809 18.8331 23.909 18.9612 24.0628 18.9612Z" fill="black"/>
</svg>
