<svg width="103" height="37" viewBox="0 0 103 37" fill="none" xmlns="http://www.w3.org/2000/svg">
<g clip-path="url(#clip0_256_164)">
<path d="M81.7179 2.62904H84.41V1.63737H75.0273V2.62904H77.7343V21.5014H75.0273V22.4846H84.41V21.5014H81.7179V2.62904Z" fill="black"/>
<mask id="mask0_256_164" style="mask-type:luminance" maskUnits="userSpaceOnUse" x="-11" y="-9" width="124" height="56">
<path d="M-10.0146 46.1372H112.673V-8.78585H-10.0146V46.1372Z" fill="white"/>
</mask>
<g mask="url(#mask0_256_164)">
<path d="M98.7919 22.4849V21.5059H95.9165V2.41951C100.311 2.2002 101.062 3.14101 101.626 7.12993H102.591L102.249 1.63762H85.5559L85.2158 7.12993H86.2064C86.7743 3.14101 87.5159 2.2002 91.9191 2.41951V21.5059H89.0416V22.4849H98.7919Z" fill="black"/>
<path d="M73.2417 2.62187V1.63762H65.5521L61.0324 15.896L56.6684 1.63762H49.0074V2.62187H51.7016V21.507L48.7912 21.5038C46.0875 21.5695 46.0461 19.2651 46.0578 18.7884C46.0949 13.7061 44.9602 11.8562 40.0898 11.104V11.0362C42.9949 10.729 46.7083 9.90257 46.7083 6.38088C46.7083 2.04552 42.6611 1.63762 39.2475 1.63762H29.1963V2.62187H31.8874V21.5038H29.1963V22.4849H38.5737V21.5038H35.8826V11.549C37.6117 11.4801 39.5601 11.9219 40.4394 12.6784C41.252 13.367 41.6896 15.5072 41.6896 18.0902C41.6896 21.2781 43.335 22.4849 46.4922 22.4849H55.5295V21.507H52.8967V2.94501H52.9613L59.1677 22.4849H60.2219L66.4675 2.94501H66.5618V21.507H63.8771V22.4849H73.2417V21.507H70.5549V2.62187H73.2417ZM35.8826 10.5753V2.62187H38.5981C41.3781 2.62187 42.4047 3.32006 42.4047 6.82586C42.4047 9.62181 41.252 10.5753 38.4412 10.5753H35.8826Z" fill="black"/>
<path d="M12.6027 0.400946H9.49V2.9299H4.30706V8.2029H0.408203V15.9466H4.30706V21.2206H9.49V23.7422H12.234C18.646 23.7422 24.3025 18.5667 24.3025 12.1007C24.3025 5.67924 19.0253 0.400946 12.6027 0.400946Z" fill="#E42A20"/>
<path d="M31.887 28.7921C31.887 28.6184 31.7938 28.5379 31.6327 28.5379H31.1348V27.542H32.3034C32.8246 27.542 33.045 27.7623 33.045 28.2836V32.8097C33.045 34.0355 33.8195 34.7665 35.0008 34.7665C36.181 34.7665 36.9576 34.0355 36.9576 32.798V28.2836C36.9576 27.7623 37.1886 27.542 37.7088 27.542H38.8668V28.5379H38.3688C38.2067 28.5379 38.1156 28.6184 38.1156 28.7921V32.8552C38.1156 34.6372 36.876 35.8535 35.0124 35.8535C33.1372 35.8535 31.887 34.6372 31.887 32.8552V28.7921Z" fill="black"/>
<path d="M39.6504 34.7189H40.1473C40.3104 34.7189 40.4026 34.6257 40.4026 34.4647V27.5421H41.4557L45.0908 32.7165C45.3917 33.1562 45.7741 33.8279 45.7741 33.8279H45.7964C45.7964 33.8279 45.7159 33.1795 45.7159 32.7165V28.2837C45.7159 27.7624 45.9352 27.5421 46.4681 27.5421H47.6261V28.538H47.1281C46.966 28.538 46.8739 28.6185 46.8739 28.7922V35.7148H45.8314L42.1857 30.5414C41.8848 30.0996 41.514 29.429 41.514 29.429H41.4907C41.4907 29.429 41.5606 30.089 41.5606 30.5414V34.9732C41.5606 35.4945 41.3392 35.7148 40.819 35.7148H39.6504V34.7189Z" fill="black"/>
<path d="M48.8818 34.7189H49.6807V28.538H48.8818V27.5421H51.5793V28.538H50.7804V34.7189H51.5793V35.7148H48.8818V34.7189Z" fill="black"/>
<path d="M52.8403 28.792C52.7714 28.5833 52.6549 28.5377 52.46 28.5377H52.2979V27.5418H52.9452C53.5237 27.5418 53.7218 27.67 53.9061 28.2135L55.6998 33.2492C55.8513 33.6889 56.0134 34.3712 56.0134 34.3712H56.0367C56.0367 34.3712 56.1861 33.6889 56.3493 33.2492L58.143 28.2135C58.339 27.67 58.5244 27.5418 59.1028 27.5418H59.7512V28.5377H59.5902C59.3804 28.5377 59.2777 28.5833 59.2077 28.792L56.6375 35.7146H55.4106L52.8403 28.792Z" fill="black"/>
<path d="M61.176 28.5375H60.4248V27.5426H65.2295C65.7497 27.5426 65.969 27.762 65.969 28.2832V29.313H64.9148V28.7918C64.9148 28.618 64.8227 28.5375 64.6606 28.5375H62.335V31.0961H65.1924V32.091H62.335V34.4642C62.335 34.6252 62.4272 34.7185 62.5893 34.7185H64.9731C65.1363 34.7185 65.2295 34.6252 65.2295 34.4642V33.9429H66.2932V34.9727C66.2932 35.495 66.0739 35.7144 65.5527 35.7144H61.9176C61.3963 35.7144 61.176 35.495 61.176 34.9727V28.5375Z" fill="black"/>
<path d="M70.5808 31.4667C71.4601 31.4667 71.9803 30.8988 71.9803 29.9845C71.9803 29.0691 71.4601 28.5372 70.603 28.5372H69.0753V31.4667H70.5808ZM67.9173 28.5372H67.165V27.5424H70.7302C72.1658 27.5424 73.1733 28.4451 73.1733 29.9389C73.1733 31.3035 72.2823 31.9763 71.7028 32.1024V32.1257C71.7028 32.1257 71.9125 32.2295 72.0492 32.4965L73.0345 34.4523C73.1511 34.696 73.3354 34.7193 73.613 34.7193H73.7645V35.7141H73.1956C72.5599 35.7141 72.3279 35.6336 72.063 35.1007L70.9516 32.9023C70.7429 32.5198 70.5914 32.4615 70.14 32.4615H69.0753V35.7141H67.9173V28.5372Z" fill="black"/>
<path d="M75.2448 33.8161C75.2448 33.8161 76.0786 34.8004 77.2928 34.8004C78.0577 34.8004 78.6955 34.3364 78.6955 33.5841C78.6955 31.871 74.7468 32.1369 74.7468 29.591C74.7468 28.3641 75.8233 27.4032 77.3637 27.4032C78.2325 27.4032 79.6893 27.7973 79.6893 28.9076V29.5804H78.6256V29.1979C78.6256 28.7688 78.0121 28.4563 77.3637 28.4563C76.4833 28.4563 75.9282 28.9426 75.9282 29.556C75.9282 31.212 79.8641 30.8412 79.8641 33.5259C79.8641 34.7771 78.8904 35.8535 77.2716 35.8535C75.534 35.8535 74.5625 34.6372 74.5625 34.6372L75.2448 33.8161Z" fill="black"/>
<path d="M81.0781 34.7189H81.877V28.538H81.0781V27.5421H83.7766V28.538H82.9767V34.7189H83.7766V35.7148H81.0781V34.7189Z" fill="black"/>
<path d="M87.4577 28.5375H85.8134C85.6513 28.5375 85.5591 28.618 85.5591 28.7918V29.313H84.5293V28.2366C84.5293 27.7164 84.702 27.5426 85.2233 27.5426H90.8501C91.3693 27.5426 91.5441 27.7164 91.5441 28.2366V29.313H90.5143V28.7918C90.5143 28.618 90.4221 28.5375 90.2589 28.5375H88.6146V35.7144H87.4577V28.5375Z" fill="black"/>
<path d="M94.8443 32.1492L92.772 28.8267C92.6215 28.583 92.5166 28.5375 92.273 28.5375H92.042V27.5416H92.5738C93.1301 27.5416 93.3494 27.6232 93.6746 28.1677L94.9132 30.2284C95.1802 30.6787 95.4111 31.1427 95.4111 31.1427H95.4344C95.4344 31.1427 95.6537 30.6787 95.9313 30.2284L97.1603 28.1677C97.4824 27.6232 97.7144 27.5416 98.2579 27.5416H98.7908V28.5375H98.5694C98.3278 28.5375 98.2124 28.583 98.0619 28.8267L96.0002 32.1492V35.7144H94.8443V32.1492Z" fill="black"/>
</g>
</g>
<defs>
<clipPath id="clip0_256_164">
<rect width="103" height="36.2544" fill="white"/>
</clipPath>
</defs>
</svg>
