<svg width="52" height="52" viewBox="0 0 52 52" fill="none" xmlns="http://www.w3.org/2000/svg">
<circle cx="26" cy="26" r="26" fill="#102F33"/>
<path d="M26.2528 38.751C20.0045 38.751 16.0562 35.0327 15.8262 29.321H21.3462C21.5762 32.0427 23.3012 33.7677 26.2528 33.7677C28.8212 33.7677 30.5079 32.6943 30.5079 30.6627C30.5079 25.3343 16.5162 29.5509 16.5162 19.0093C16.5162 14.4477 20.4262 11.3043 25.9079 11.3043C31.6962 11.3043 35.5678 14.6393 35.7211 19.7377H30.2779C30.0478 17.6293 28.4378 16.2493 25.9079 16.2493C23.6078 16.2493 22.1895 17.3227 22.1895 19.0093C22.1895 24.5677 36.2962 19.8527 36.2962 30.586C36.2962 35.6077 32.2712 38.751 26.2528 38.751Z" fill="#20E28F"/>
</svg>
