<svg width="106" height="100" viewBox="0 0 106 100" fill="none" xmlns="http://www.w3.org/2000/svg">
<mask id="mask0_277_331" style="mask-type:luminance" maskUnits="userSpaceOnUse" x="12" y="26" width="82" height="49">
<path d="M12 26H93.6615V74.95H12V26Z" fill="white"/>
</mask>
<g mask="url(#mask0_277_331)">
<path fill-rule="evenodd" clip-rule="evenodd" d="M52.8307 26C41.9425 26 35.1374 31.4389 32.4154 42.3167C36.4984 36.8778 41.262 34.8382 46.7061 36.1979C49.8123 36.973 52.0323 39.2256 54.4897 41.7169C58.4926 45.7764 63.1261 50.475 73.2461 50.475C84.1343 50.475 90.9394 45.0361 93.6615 34.1583C89.5784 39.5972 84.8148 41.6368 79.3707 40.2771C76.2646 39.502 74.0446 37.2494 71.5872 34.7581C67.5842 30.6986 62.9507 26 52.8307 26ZM32.4154 50.475C21.5272 50.475 14.722 55.9139 12 66.7917C16.0831 61.3528 20.8467 59.3132 26.2908 60.6729C29.3969 61.4495 31.6169 63.7006 34.0743 66.1919C38.0772 70.2514 42.7108 74.95 52.8307 74.95C63.7189 74.95 70.5241 69.5111 73.2461 58.6333C69.163 64.0722 64.3994 66.1118 58.9553 64.7521C55.8492 63.977 53.6292 61.7244 51.1718 59.2331C47.1689 55.1736 42.5353 50.475 32.4154 50.475Z" fill="#38BDF8"/>
</g>
</svg>
