<svg width="106" height="100" viewBox="0 0 106 100" fill="none" xmlns="http://www.w3.org/2000/svg">
<path d="M60.0872 46.5403C63.5595 43.6863 65.098 26.8203 66.601 20.7577C68.104 14.6959 74.3201 15.0026 74.3201 15.0026C74.3201 15.0026 72.7065 17.7939 73.3646 19.8767C74.0227 21.9594 78.5321 23.821 78.5321 23.821L77.5595 26.369C77.5595 26.369 75.5286 26.111 74.3201 28.5133C73.1116 30.9157 75.8342 54.4584 75.8342 54.4584C75.8342 54.4584 67.8335 68.94 67.8335 74.951C67.8335 80.962 70.6967 86 70.6967 86H66.679C66.679 86 60.785 79.0299 59.5765 75.5465C58.3677 72.063 58.8512 68.5796 58.8512 68.5796C58.8512 68.5796 52.4451 68.2192 46.7644 68.5796C41.0837 68.94 37.2953 73.793 36.6115 76.5073C35.9279 79.2221 35.6445 86 35.6445 86H32.4678C30.5342 80.0702 28.9987 77.9452 29.8318 74.951C32.1393 66.6579 31.6858 61.9542 31.1516 59.8589C30.6173 57.7639 27 55.9353 27 55.9353C28.7721 52.3477 30.5808 50.6239 38.361 50.4439C46.1417 50.2642 56.6152 49.3943 60.0872 46.5403Z" fill="#EC4815"/>
<path d="M39.2852 74.6038C39.2852 74.6038 40.1061 82.1529 44.467 85.9999H48.2045C44.4674 81.7925 44.0598 70.8254 44.0598 70.8254C42.1588 71.4406 39.5267 73.6425 39.2852 74.6038Z" fill="#EC4815"/>
</svg>
