<svg width="87" height="51" viewBox="0 0 87 51" fill="none" xmlns="http://www.w3.org/2000/svg">
<path d="M52.3966 27.3172C55.6726 27.3172 58.2991 24.8599 58.2991 21.6187C58.2991 18.3765 55.6717 15.9192 52.3966 15.9192C49.1215 15.9192 46.4932 18.3765 46.4932 21.6187C46.4932 24.8599 49.1206 27.3172 52.3966 27.3172ZM52.3966 18.8849C53.9085 18.8849 55.1564 20.1213 55.1564 21.6187C55.1564 23.116 53.9085 24.3524 52.3966 24.3524C50.8847 24.3524 49.6368 23.116 49.6368 21.6187C49.6368 20.1213 50.8847 18.8849 52.3966 18.8849Z" fill="#094792"/>
<path d="M67.0476 23.4068C68.1052 22.6799 68.9423 21.603 68.9423 20.1356C68.9423 17.8533 67.1056 16.1665 64.7847 16.1665H59.7773V27.0705H62.774V24.1038H64.1834L65.5493 27.0705H68.9123L67.0476 23.4068ZM64.7856 21.4145H62.775V18.8403H64.7856C65.4623 18.8403 65.9031 19.5962 65.9031 20.1347C65.9031 20.6741 65.4623 21.4145 64.7856 21.4145Z" fill="#094792"/>
<path d="M70.7607 16.1665H73.7574V27.0705H70.7607V16.1665Z" fill="#094792"/>
<path d="M79.9825 16.1658L74.9316 27.0688H78.1429L78.6697 25.8344H82.4175L82.9443 27.0688H86.1556L81.1067 16.1658H79.9825ZM79.5842 23.2456L80.5151 21.1228H80.575L81.504 23.2456H79.5842Z" fill="#094792"/>
<path d="M39.8391 27.0707H42.8358V18.8414H45.8469V16.1667H38.594L45.6391 0.966797H0.84375L7.93232 16.2653H11.2374L13.9498 22.1175L16.6613 16.2653H19.9731L15.0112 26.974H12.8952L23.2405 49.3001L33.8235 26.4597C33.0038 26.9344 32.0507 27.206 31.0328 27.206C27.835 27.206 25.2946 24.7932 25.2946 21.609C25.2946 18.4248 27.835 16.012 31.0328 16.012C33.0763 16.012 34.8598 17.1121 35.8303 18.739L33.3315 20.2383C32.8607 19.4669 32.0033 18.9246 31.0328 18.9246C29.5489 18.9246 28.3493 20.1387 28.3493 21.609C28.3493 23.0793 29.5489 24.2944 31.0328 24.2944C32.0043 24.2944 32.8607 23.7656 33.3315 22.9797L34.9777 23.9677L37.3538 18.8405H39.8372V27.0707H39.8391ZM23.9326 26.974H20.8741V16.2653H23.9326V26.974Z" fill="#094792"/>
<path d="M41.6151 36.0714C40.9143 36.0714 40.2705 35.7988 39.878 35.4836L39.3115 36.3585C39.8973 36.8312 40.7847 37.0709 41.6103 37.0709C42.7838 37.0709 43.8423 36.4996 43.8423 35.2951C43.8423 34.3449 43.0796 33.9292 42.1062 33.7688L41.7988 33.7185C41.1434 33.6083 40.6726 33.4894 40.6726 33.0863C40.6726 32.6735 41.1037 32.4328 41.7156 32.4328C42.3121 32.4328 42.8341 32.63 43.2623 32.8959L43.7766 32.0075C43.0912 31.5996 42.4551 31.4285 41.6934 31.4285C40.5315 31.4285 39.5194 32.0191 39.5194 33.1559C39.5194 34.1429 40.2202 34.5672 41.182 34.718L41.5291 34.7731C42.2879 34.894 42.6852 35.0351 42.6852 35.4121C42.6862 35.8316 42.2193 36.0714 41.6151 36.0714Z" fill="#094792"/>
<path d="M47.5346 36.6756L47.1605 35.8791C46.9546 36.0057 46.6946 36.1265 46.4529 36.1265C46.1378 36.1265 45.8884 35.9545 45.8884 35.4837V34.1043H47.2533V33.2004H45.8884V32.0791H44.8705V33.2004H44.1416V34.1043H44.8705V35.5649C44.8705 36.5422 45.348 37.0719 46.2847 37.0719C46.8222 37.0719 47.2021 36.9008 47.5346 36.6756Z" fill="#094792"/>
<path d="M51.6637 36.9752V33.2014H50.6699V33.6161C50.4205 33.3096 50.059 33.0999 49.5399 33.0999C48.5007 33.0999 47.7139 33.9534 47.7139 35.0864C47.7139 36.2203 48.4998 37.0729 49.5399 37.0729C50.059 37.0729 50.4244 36.8621 50.6699 36.5615V36.9772H51.6637V36.9752ZM49.7284 36.1255C49.132 36.1255 48.754 35.6615 48.754 35.0854C48.754 34.5083 49.132 34.0462 49.7284 34.0462C50.3084 34.0462 50.7009 34.489 50.7009 35.0854C50.7009 35.6828 50.3084 36.1255 49.7284 36.1255Z" fill="#094792"/>
<path d="M54.3433 37.0719C54.8817 37.0719 55.2626 36.9008 55.5932 36.6766L55.2191 35.881C55.0132 36.0067 54.7532 36.1275 54.5096 36.1275C54.1944 36.1275 53.945 35.9545 53.945 35.4847V34.1043H55.3138V33.2004H53.945V32.0791H52.9291V33.2004H52.2002V34.1043H52.9291V35.5659C52.9291 36.5422 53.4085 37.0719 54.3433 37.0719Z" fill="#094792"/>
<path d="M58.744 35.8442C58.4704 36.0752 58.1176 36.2086 57.7889 36.2086C57.3114 36.2086 56.9296 35.9708 56.8194 35.4237H59.4961C59.5096 35.3377 59.5154 35.1985 59.5154 35.0815C59.5115 33.9051 58.7682 33.0989 57.6826 33.0989C56.5516 33.0989 55.7734 33.9089 55.7734 35.097C55.7734 36.285 56.5758 37.0709 57.7319 37.0709C58.367 37.0709 58.9132 36.8921 59.3404 36.4996L58.744 35.8442ZM57.6729 33.9756C58.1079 33.9756 58.3999 34.2482 58.4946 34.7306H56.8232C56.9122 34.2637 57.1935 33.9756 57.6729 33.9756Z" fill="#094792"/>
<path d="M42.2926 40.9588V41.8655H43.6788C43.5348 42.6417 43.0167 43.0709 42.1293 43.0709C41.1848 43.0709 40.427 42.373 40.427 41.2594C40.427 40.1961 41.152 39.4643 42.1476 39.4643C42.7054 39.4643 43.1568 39.6828 43.4652 40.0356L44.2482 39.269C43.7658 38.7432 43.0447 38.4329 42.1805 38.4329C40.5043 38.4329 39.3018 39.6132 39.3018 41.2604C39.3018 43.0216 40.6416 44.083 42.1525 44.083C43.6991 44.083 44.8176 42.9211 44.8176 41.2681C44.8176 41.1676 44.8127 41.0651 44.8011 40.9607H42.2926V40.9588Z" fill="#094792"/>
<path d="M47.3678 40.1091C46.1943 40.1091 45.3301 40.9588 45.3301 42.0956C45.3301 43.2334 46.1952 44.0821 47.3678 44.0821C48.5442 44.0821 49.4133 43.2334 49.4133 42.0956C49.4133 40.9588 48.5442 40.1091 47.3678 40.1091ZM47.3678 43.1367C46.7946 43.1367 46.3673 42.7095 46.3673 42.0956C46.3673 41.4847 46.7946 41.0574 47.3678 41.0574C47.9401 41.0574 48.3731 41.4847 48.3731 42.0956C48.3731 42.7095 47.9401 43.1367 47.3678 43.1367Z" fill="#094792"/>
<path d="M51.5968 42.9145L50.6186 40.2107H49.5137L51.0052 43.9855H52.1778L53.6539 40.2107H52.5828L51.5968 42.9145Z" fill="#094792"/>
<path d="M55.667 40.1091C54.5369 40.1091 53.7568 40.9202 53.7568 42.1072C53.7568 43.2943 54.5592 44.0812 55.7172 44.0812C56.3514 44.0812 56.8985 43.9033 57.3248 43.5099L56.7284 42.8545C56.4567 43.0836 56.1029 43.2179 55.7752 43.2179C55.2958 43.2179 54.9139 42.9801 54.8047 42.4359H57.4824C57.494 42.3489 57.5017 42.2087 57.5017 42.0918C57.4969 40.9153 56.7535 40.1091 55.667 40.1091ZM54.8095 41.7418C54.8994 41.2749 55.1798 40.9869 55.6592 40.9869C56.0942 40.9869 56.3862 41.2595 56.4799 41.7418H54.8095Z" fill="#094792"/>
<path d="M59.1598 40.6231V40.2094H58.1738V43.9842H59.1908V41.9291C59.1908 41.3655 59.5136 41.0775 59.9854 41.0775C60.1913 41.0775 60.4329 41.1248 60.6011 41.1993L60.7519 40.191C60.6118 40.1398 60.4407 40.1079 60.2232 40.1079C59.7601 40.1089 59.3986 40.2693 59.1598 40.6231Z" fill="#094792"/>
<path d="M63.3906 40.1091C62.9624 40.1091 62.5496 40.2532 62.2809 40.6524V40.2097H61.292V43.9845H62.3089V41.9158C62.3089 41.3474 62.6714 41.0623 63.1084 41.0623C63.5714 41.0623 63.844 41.3619 63.844 41.9091V43.9835H64.8609V41.5804C64.86 40.7046 64.2481 40.1091 63.3906 40.1091Z" fill="#094792"/>
<path d="M70.3657 40.1091C69.8698 40.1091 69.3778 40.2773 69.0839 40.7568C68.8307 40.3556 68.3841 40.1091 67.8379 40.1091C67.4106 40.1091 66.9969 40.2532 66.7272 40.6524V40.2097H65.7383V43.9845H66.7562V41.9158C66.7562 41.3474 67.1187 41.0623 67.5547 41.0623C68.0187 41.0623 68.2913 41.3619 68.2913 41.9091V43.9835H69.3091V41.9149C69.3091 41.3465 69.6707 41.0613 70.1057 41.0613C70.5668 41.0613 70.8423 41.361 70.8423 41.9081V43.9826H71.8554V41.5794C71.8534 40.7046 71.2551 40.1091 70.3657 40.1091Z" fill="#094792"/>
<path d="M74.4091 40.1091C73.2791 40.1091 72.498 40.9202 72.498 42.1072C72.498 43.2943 73.3023 44.0812 74.4575 44.0812C75.0935 44.0812 75.6378 43.9033 76.0679 43.5099L75.4715 42.8545C75.1999 43.0836 74.8451 43.2179 74.5184 43.2179C74.0379 43.2179 73.6551 42.9801 73.5478 42.4359H76.2236C76.2352 42.3489 76.2429 42.2087 76.2429 42.0918C76.2381 40.9153 75.4947 40.1091 74.4091 40.1091ZM73.5517 41.7418C73.6416 41.2749 73.921 40.9869 74.4014 40.9869C74.8374 40.9869 75.1283 41.2595 75.2231 41.7418H73.5517Z" fill="#094792"/>
<path d="M79.0156 40.1091C78.5874 40.1091 78.1756 40.2532 77.9059 40.6524V40.2097H76.917V43.9845H77.9349V41.9158C77.9349 41.3474 78.2955 41.0623 78.7334 41.0623C79.1964 41.0623 79.47 41.3619 79.47 41.9091V43.9835H80.4859V41.5804C80.485 40.7046 79.8731 40.1091 79.0156 40.1091Z" fill="#094792"/>
<path d="M83.2615 43.1365C82.9444 43.1365 82.695 42.9645 82.695 42.4937V41.1143H84.0619V40.2114H82.695V39.0891H81.6791V40.2114H80.9502V41.1143H81.6791V42.5749C81.6791 43.5532 82.1585 44.0819 83.0933 44.0819C83.6317 44.0819 84.0107 43.9108 84.3432 43.6866L83.9691 42.89C83.7632 43.0157 83.5032 43.1365 83.2615 43.1365Z" fill="#094792"/>
</svg>
