<svg width="106" height="100" viewBox="0 0 106 100" fill="none" xmlns="http://www.w3.org/2000/svg">
<g clip-path="url(#clip0_277_269)">
<mask id="mask0_277_269" style="mask-type:alpha" maskUnits="userSpaceOnUse" x="22" y="19" width="62" height="62">
<path fill-rule="evenodd" clip-rule="evenodd" d="M65.9654 80.5766C66.9419 80.9571 68.0553 80.9327 69.0409 80.4584L81.8057 74.3162C83.147 73.6708 84 72.3133 84 70.8241V29.1763C84 27.687 83.1471 26.3295 81.8058 25.6841L69.0409 19.5418C67.7474 18.9194 66.2337 19.0718 65.0984 19.8971C64.9362 20.015 64.7817 20.1467 64.6368 20.2917L40.2002 42.5858L29.5561 34.506C28.5652 33.7539 27.1793 33.8155 26.259 34.6526L22.8451 37.7581C21.7194 38.782 21.7181 40.5529 22.8423 41.5786L32.0732 50.0001L22.8423 58.4216C21.7181 59.4472 21.7194 61.2182 22.8451 62.2421L26.259 65.3476C27.1793 66.1847 28.5652 66.2463 29.5561 65.4941L40.2002 57.4144L64.6368 79.7084C65.0233 80.0952 65.4773 80.3865 65.9654 80.5766ZM68.5094 35.9253L49.9676 50.0001L68.5094 64.0748V35.9253Z" fill="white"/>
</mask>
<g mask="url(#mask0_277_269)">
<path d="M81.8062 25.6941L69.0314 19.5433C67.5527 18.8314 65.7855 19.1317 64.6251 20.2922L22.8052 58.4221C21.6804 59.4476 21.6817 61.2186 22.808 62.2425L26.224 65.348C27.1448 66.1851 28.5316 66.2467 29.523 65.4946L79.8839 27.2898C81.5734 26.0081 84.0001 27.2131 84.0001 29.3338V29.1855C84.0001 27.6969 83.1473 26.3399 81.8062 25.6941Z" fill="#696969"/>
<g filter="url(#filter0_d_277_269)">
<path d="M81.8062 74.3064L69.0314 80.4572C67.5527 81.1693 65.7855 80.8688 64.6251 79.7084L22.8052 41.5785C21.6804 40.5529 21.6817 38.7819 22.808 37.758L26.224 34.6526C27.1448 33.8154 28.5316 33.7538 29.523 34.5059L79.8839 72.7107C81.5734 73.9924 84.0001 72.7874 84.0001 70.6667V70.815C84.0001 72.3036 83.1473 73.6606 81.8062 74.3064Z" fill="#767676"/>
</g>
<g filter="url(#filter1_d_277_269)">
<path d="M69.0318 80.4584C67.5527 81.17 65.7856 80.869 64.625 79.7084C66.055 81.1384 68.5 80.1256 68.5 78.1033V21.8968C68.5 19.8745 66.055 18.8618 64.625 20.2917C65.7856 19.1312 67.5527 18.8304 69.0318 19.5418L81.8044 25.6841C83.1465 26.3296 84 27.687 84 29.1763V70.8241C84 72.3133 83.1465 73.6708 81.8043 74.3162L69.0318 80.4584Z" fill="#999999"/>
</g>
<g style="mix-blend-mode:overlay" opacity="0.25">
<path fill-rule="evenodd" clip-rule="evenodd" d="M65.9278 80.5767C66.9043 80.957 68.0178 80.9327 69.0033 80.4584L81.7681 74.3163C83.1094 73.6709 83.9624 72.3134 83.9624 70.8241V29.1763C83.9624 27.687 83.1095 26.3295 81.7681 25.6841L69.0033 19.5418C67.7099 18.9194 66.196 19.0718 65.0608 19.8971C64.8986 20.015 64.7441 20.1467 64.5992 20.2917L40.1626 42.5857L29.5185 34.506C28.5276 33.7538 27.1417 33.8155 26.2214 34.6526L22.8075 37.758C21.6818 38.782 21.6805 40.5529 22.8047 41.5785L32.0356 50.0001L22.8047 58.4217C21.6805 59.4473 21.6818 61.2182 22.8075 62.2421L26.2214 65.3475C27.1417 66.1847 28.5276 66.2463 29.5185 65.4942L40.1626 57.4144L64.5992 79.7084C64.9857 80.0952 65.4396 80.3865 65.9278 80.5767ZM68.4718 35.9254L49.93 50.0001L68.4718 64.0748V35.9254Z" fill="url(#paint0_linear_277_269)"/>
</g>
</g>
</g>
<defs>
<filter id="filter0_d_277_269" x="13.6291" y="25.6474" width="78.7043" height="63.5256" filterUnits="userSpaceOnUse" color-interpolation-filters="sRGB">
<feFlood flood-opacity="0" result="BackgroundImageFix"/>
<feColorMatrix in="SourceAlpha" type="matrix" values="0 0 0 0 0 0 0 0 0 0 0 0 0 0 0 0 0 0 127 0" result="hardAlpha"/>
<feOffset/>
<feGaussianBlur stdDeviation="4.16667"/>
<feColorMatrix type="matrix" values="0 0 0 0 0 0 0 0 0 0 0 0 0 0 0 0 0 0 0.25 0"/>
<feBlend mode="overlay" in2="BackgroundImageFix" result="effect1_dropShadow_277_269"/>
<feBlend mode="normal" in="SourceGraphic" in2="effect1_dropShadow_277_269" result="shape"/>
</filter>
<filter id="filter1_d_277_269" x="56.2917" y="10.8266" width="36.0417" height="78.3471" filterUnits="userSpaceOnUse" color-interpolation-filters="sRGB">
<feFlood flood-opacity="0" result="BackgroundImageFix"/>
<feColorMatrix in="SourceAlpha" type="matrix" values="0 0 0 0 0 0 0 0 0 0 0 0 0 0 0 0 0 0 127 0" result="hardAlpha"/>
<feOffset/>
<feGaussianBlur stdDeviation="4.16667"/>
<feColorMatrix type="matrix" values="0 0 0 0 0 0 0 0 0 0 0 0 0 0 0 0 0 0 0.25 0"/>
<feBlend mode="overlay" in2="BackgroundImageFix" result="effect1_dropShadow_277_269"/>
<feBlend mode="normal" in="SourceGraphic" in2="effect1_dropShadow_277_269" result="shape"/>
</filter>
<linearGradient id="paint0_linear_277_269" x1="52.9624" y1="19.1599" x2="52.9624" y2="80.8403" gradientUnits="userSpaceOnUse">
<stop stop-color="white"/>
<stop offset="1" stop-color="white" stop-opacity="0"/>
</linearGradient>
<clipPath id="clip0_277_269">
<rect width="62" height="62" fill="white" transform="translate(22 19)"/>
</clipPath>
</defs>
</svg>
