<svg width="106" height="100" viewBox="0 0 106 100" fill="none" xmlns="http://www.w3.org/2000/svg">
<g clip-path="url(#clip0_277_269)">
<mask id="mask0_277_269" style="mask-type:alpha" maskUnits="userSpaceOnUse" x="22" y="19" width="62" height="62">
<path fill-rule="evenodd" clip-rule="evenodd" d="M65.9654 80.5766C66.9419 80.9571 68.0553 80.9327 69.0409 80.4584L81.8057 74.3162C83.147 73.6708 84 72.3133 84 70.8241V29.1763C84 27.687 83.1471 26.3295 81.8058 25.6841L69.0409 19.5418C67.7474 18.9194 66.2337 19.0718 65.0984 19.8971C64.9362 20.015 64.7817 20.1467 64.6368 20.2917L40.2002 42.5858L29.5561 34.506C28.5652 33.7539 27.1793 33.8155 26.259 34.6526L22.8451 37.7581C21.7194 38.782 21.7181 40.5529 22.8423 41.5786L32.0732 50.0001L22.8423 58.4216C21.7181 59.4472 21.7194 61.2182 22.8451 62.2421L26.259 65.3476C27.1793 66.1847 28.5652 66.2463 29.5561 65.4941L40.2002 57.4144L64.6368 79.7084C65.0233 80.0952 65.4773 80.3865 65.9654 80.5766ZM68.5094 35.9253L49.9676 50.0001L68.5094 64.0748V35.9253Z" fill="white"/>
</mask>
<g mask="url(#mask0_277_269)">
<mask id="mask1_277_269" style="mask-type:alpha" maskUnits="userSpaceOnUse" x="9" y="7" width="87" height="86">
<path fill-rule="evenodd" clip-rule="evenodd" d="M70.9657 92.4126C72.3202 92.9403 73.8647 92.9065 75.2318 92.2486L92.9377 83.7288C94.7983 82.8336 95.9814 80.9506 95.9814 78.8849V21.1153C95.9814 19.0496 94.7983 17.1667 92.9378 16.2714L75.2318 7.75134C73.4376 6.888 71.3378 7.09946 69.7631 8.24428C69.5382 8.40782 69.3239 8.59042 69.1228 8.79164L35.2268 39.7156L20.4624 28.5082C19.088 27.4649 17.1656 27.5504 15.8891 28.7116L11.1537 33.0191C9.59225 34.4394 9.59046 36.8958 11.1498 38.3185L23.954 50L11.1498 61.6815C9.59046 63.1041 9.59225 65.5606 11.1537 66.9809L15.8891 71.2884C17.1656 72.4496 19.088 72.5351 20.4624 71.4917L35.2268 60.2844L69.1228 91.2083C69.659 91.7448 70.2886 92.1488 70.9657 92.4126ZM74.4945 30.477L48.7753 50L74.4945 69.5229V30.477Z" fill="white"/>
</mask>
<g mask="url(#mask1_277_269)">
<path d="M92.9383 16.2849L75.2184 7.75314C73.1673 6.76559 70.7161 7.18216 69.1065 8.79184L11.0983 61.6817C9.53797 63.1043 9.53977 65.5608 11.1021 66.9811L15.8404 71.2886C17.1177 72.4498 19.0413 72.5353 20.4165 71.492L90.2719 18.4983C92.6154 16.7204 95.9815 18.3919 95.9815 21.3335V21.1278C95.9815 19.063 94.7986 17.1807 92.9383 16.2849Z" fill="#0065A9"/>
<g filter="url(#filter0_d_277_269)">
<path d="M92.9383 83.7154L75.2184 92.2472C73.1673 93.2349 70.7161 92.8181 69.1065 91.2085L11.0983 38.3187C9.53797 36.8961 9.53977 34.4395 11.1021 33.0193L15.8404 28.7117C17.1177 27.5505 19.0413 27.465 20.4165 28.5083L90.2719 81.502C92.6154 83.2799 95.9815 81.6084 95.9815 78.6668V78.8726C95.9815 80.9373 94.7986 82.8196 92.9383 83.7154Z" fill="#007ACC"/>
</g>
<g filter="url(#filter1_d_277_269)">
<path d="M75.2192 92.2486C73.1675 93.2356 70.7163 92.8181 69.1064 91.2083C71.0899 93.1918 74.4814 91.787 74.4814 88.9819V11.018C74.4814 8.21295 71.0899 6.80814 69.1064 8.79164C70.7163 7.18182 73.1675 6.76466 75.2192 7.75134L92.9359 16.2714C94.7976 17.1667 95.9814 19.0496 95.9814 21.1154V78.8849C95.9814 80.9506 94.7976 82.8336 92.9358 83.7288L75.2192 92.2486Z" fill="#1F9CF0"/>
</g>
<g style="mix-blend-mode:overlay" opacity="0.25">
<path fill-rule="evenodd" clip-rule="evenodd" d="M70.9134 92.4127C72.2679 92.9403 73.8125 92.9065 75.1795 92.2487L92.8855 83.7289C94.746 82.8336 95.9292 80.9507 95.9292 78.8849V21.1154C95.9292 19.0496 94.7461 17.1666 92.8856 16.2714L75.1795 7.75134C73.3854 6.888 71.2855 7.09946 69.7108 8.24428C69.4859 8.40782 69.2716 8.59042 69.0705 8.79164L35.1746 39.7156L20.4102 28.5082C19.0358 27.4649 17.1133 27.5504 15.8368 28.7115L11.1014 33.0191C9.54 34.4395 9.53821 36.8959 11.0975 38.3185L23.9017 50L11.0975 61.6815C9.53821 63.1041 9.54 65.5605 11.1014 66.9808L15.8368 71.2884C17.1133 72.4496 19.0358 72.5351 20.4102 71.4918L35.1746 60.2844L69.0705 91.2083C69.6067 91.7448 70.2363 92.1489 70.9134 92.4127ZM74.4423 30.477L48.723 50L74.4423 69.523V30.477Z" fill="url(#paint0_linear_277_269)"/>
</g>
</g>
</g>
</g>
<defs>
<filter id="filter0_d_277_269" x="1.59586" y="19.4464" width="102.719" height="81.6647" filterUnits="userSpaceOnUse" color-interpolation-filters="sRGB">
<feFlood flood-opacity="0" result="BackgroundImageFix"/>
<feColorMatrix in="SourceAlpha" type="matrix" values="0 0 0 0 0 0 0 0 0 0 0 0 0 0 0 0 0 0 127 0" result="hardAlpha"/>
<feOffset/>
<feGaussianBlur stdDeviation="4.16667"/>
<feColorMatrix type="matrix" values="0 0 0 0 0 0 0 0 0 0 0 0 0 0 0 0 0 0 0.25 0"/>
<feBlend mode="overlay" in2="BackgroundImageFix" result="effect1_dropShadow_277_269"/>
<feBlend mode="normal" in="SourceGraphic" in2="effect1_dropShadow_277_269" result="shape"/>
</filter>
<filter id="filter1_d_277_269" x="60.7731" y="-1.11166" width="43.5417" height="102.223" filterUnits="userSpaceOnUse" color-interpolation-filters="sRGB">
<feFlood flood-opacity="0" result="BackgroundImageFix"/>
<feColorMatrix in="SourceAlpha" type="matrix" values="0 0 0 0 0 0 0 0 0 0 0 0 0 0 0 0 0 0 127 0" result="hardAlpha"/>
<feOffset/>
<feGaussianBlur stdDeviation="4.16667"/>
<feColorMatrix type="matrix" values="0 0 0 0 0 0 0 0 0 0 0 0 0 0 0 0 0 0 0.25 0"/>
<feBlend mode="overlay" in2="BackgroundImageFix" result="effect1_dropShadow_277_269"/>
<feBlend mode="normal" in="SourceGraphic" in2="effect1_dropShadow_277_269" result="shape"/>
</filter>
<linearGradient id="paint0_linear_277_269" x1="52.9292" y1="7.22168" x2="52.9292" y2="92.7783" gradientUnits="userSpaceOnUse">
<stop stop-color="white"/>
<stop offset="1" stop-color="white" stop-opacity="0"/>
</linearGradient>
<clipPath id="clip0_277_269">
<rect width="62" height="62" fill="white" transform="translate(22 19)"/>
</clipPath>
</defs>
</svg>
