<svg width="102" height="49" viewBox="0 0 102 49" fill="none" xmlns="http://www.w3.org/2000/svg">
<g clip-path="url(#clip0_256_155)">
<path d="M89.0469 11.998H1.19873C0.536177 11.998 0 12.5342 0 13.1968V34.1293C0 34.791 0.536177 35.3272 1.19782 35.3272H90.2628C91.1528 35.3272 92.0058 34.9724 92.6332 34.3406L100.455 26.4667C101.913 24.9981 101.913 23.5439 100.455 22.0834L91.4182 12.9846C90.7908 12.3537 89.9369 11.998 89.0469 11.998Z" fill="#201F2B"/>
<path d="M48.9258 19.6632L47.988 20.6002L45.6031 22.9859C44.9379 23.6557 44.9379 24.737 45.6031 25.4059L49.1623 28.9696H46.1492L43.6525 26.4602C43.0522 25.8618 42.7146 25.0494 42.7146 24.2018C42.7146 23.3542 43.0522 22.5418 43.6534 21.9433L44.9839 20.6074L45.9389 19.6632H48.9258ZM42.1776 15.2826V28.9696H40.0292V15.2817L42.1776 15.2826ZM38.9542 22.1148C38.7393 21.9912 38.3151 21.9253 37.8963 21.9253C35.9637 21.9253 35.9637 24.3263 35.9637 25.6325V28.9696H33.5807V19.8763H35.6947V21.9433H35.7254C35.84 21.0876 36.8032 19.6623 38.2285 19.6623C38.4559 19.6623 38.7096 19.6623 38.9542 19.7345V22.1148ZM27.6593 19.6623C30.406 19.6623 32.5065 21.5489 32.5065 24.6522C32.5065 27.3665 30.7247 29.5166 27.6602 29.5166C24.6128 29.5166 22.8355 27.3665 22.8355 24.6522C22.8355 21.548 24.9314 19.6623 27.6593 19.6623ZM27.6611 21.6066C26.0345 21.6066 25.2528 22.9787 25.2528 24.3877C25.2528 25.9313 25.7483 27.6283 27.6611 27.6283C29.59 27.6283 30.0892 25.9511 30.0892 24.3877C30.0892 22.9516 29.3075 21.6066 27.6611 21.6066ZM17.0206 28.9696L14.8037 18.9059H14.7793L12.5985 28.9696H9.42383L6.17969 16.3785H8.75045L11.0432 26.434H11.0712L13.1626 16.3776H16.4934L18.6517 26.434H18.6869L20.985 16.3776H23.3726L20.1726 28.9696H17.0206Z" fill="white"/>
<path d="M71.6624 0.814686L49.753 22.7241C48.883 23.594 48.883 25.0046 49.753 25.8746L71.8315 47.9531C72.7015 48.8231 74.112 48.8231 74.982 47.9531L96.8914 26.0437C97.7614 25.1737 97.7614 23.7632 96.8914 22.8932L74.8129 0.814685C73.9429 -0.0553059 72.5324 -0.0553037 71.6624 0.814686Z" fill="#FDB813"/>
<path d="M60.6944 19.8241C60.6944 18.4033 61.8191 18.0115 62.6946 18.0115C63.5829 18.0161 64.4602 18.2056 65.2708 18.5685L65.5019 16.4202C64.5812 16.1042 63.563 15.9517 62.4735 15.9517C60.2439 15.9517 58.0469 17.015 58.0469 19.9369C58.0469 24.2435 63.5919 23.2108 63.5919 25.7013C63.5919 26.8765 62.3074 27.382 61.3443 27.382C60.3477 27.382 59.3512 27.0643 58.4829 26.5768L58.25 28.9373C59.4983 29.2442 60.1122 29.4337 61.4923 29.4337C64.0486 29.4337 66.2493 28.3524 66.2493 25.4927C66.2493 21.1302 60.6935 22.0807 60.6935 19.8232M71.2951 19.3718C74.1385 19.3718 75.321 20.5841 75.321 23.4248V24.6632C75.321 25.6209 75.3363 26.3557 75.3571 27.0643C75.3742 27.79 75.4076 28.467 75.4618 29.2153H73.3144C73.2295 28.7089 73.2295 28.0716 73.2124 27.7774H73.1763C72.6148 28.847 71.4017 29.4346 70.2941 29.4346C68.6458 29.4346 67.0292 28.4029 67.0292 26.5768C67.0292 25.1398 67.6954 24.3058 68.6269 23.831C69.5512 23.3661 70.7517 23.2731 71.7672 23.2731H73.1104C73.1104 21.7251 72.4334 21.2033 71.0036 21.2033C69.9673 21.2033 68.9275 21.6131 68.1178 22.2486L68.0501 20.0994C68.988 19.6481 70.2598 19.3718 71.2951 19.3718ZM73.1113 24.7661H71.9532C70.8691 24.7787 69.3472 25.0062 69.3472 26.4324C69.3472 27.2556 70.017 27.6086 70.8908 27.6086C71.6363 27.6086 72.2177 27.2692 72.6013 26.7519C72.9975 26.2031 73.1113 25.5171 73.1113 24.7661ZM82.0431 19.5984H79.9218V18.4033C79.9218 17.6604 80.1773 16.9247 80.9951 16.9247C81.5186 16.9247 81.8345 17.1324 82.0421 17.2659L82.2443 15.1871C81.663 15.0572 81.0691 14.9895 80.4724 14.9858C78.5444 14.9858 77.4937 16.3281 77.4937 18.2516V19.5984H75.6902V21.4218H77.4928V29.2153H79.9218V21.4209H82.0431V19.5984ZM86.494 19.3709C89.9566 19.3709 90.9369 21.8171 90.9369 25.1741H84.4739C84.5876 26.7258 85.6383 27.6077 87.1476 27.6077C88.3237 27.6077 89.3392 27.1527 90.2482 26.6292V28.6674C89.3582 29.1729 88.3382 29.4346 87.0329 29.4346C83.9549 29.4346 82.1523 27.6095 82.1523 24.4466C82.1523 21.6664 83.5965 19.3718 86.494 19.3718V19.3709ZM86.6421 21.2033C85.2746 21.2033 84.5876 22.1737 84.473 23.4573H88.6108C88.5431 22.2486 87.9961 21.2033 86.6421 21.2033Z" fill="#201F2B"/>
<path d="M64.8212 34.5598H64.8131L64.1505 32.4612H63.5918L64.4809 35.1357H65.1191L65.992 32.4612H65.4738L64.8212 34.5598ZM66.7845 35.1357H67.308V32.4612H66.7836L66.7845 35.1357ZM69.5899 34.762C69.0366 34.762 68.7062 34.3495 68.7062 33.8061C68.7062 33.26 69.0447 32.8403 69.5773 32.8403C69.7614 32.8403 69.9429 32.8674 70.1397 32.9775L70.1703 32.5262C69.9853 32.4567 69.7885 32.4215 69.5899 32.4233C68.7062 32.4233 68.1637 32.9306 68.1637 33.8486C68.1637 34.7476 68.7487 35.1863 69.5899 35.1863C69.7822 35.1863 69.9907 35.1394 70.1776 35.0987L70.1523 34.6447C70.0322 34.7169 69.793 34.762 69.5899 34.762ZM70.7453 32.8827H71.4873V35.1357H72.0118V32.8818H72.7474V32.4612H70.7453V32.8827ZM79.3332 35.1357H79.8567V32.4612H79.3332V35.1357ZM74.5979 32.4224C75.4085 32.4224 75.8733 32.9838 75.8733 33.7944C75.8733 34.6014 75.4184 35.1863 74.5979 35.1863C73.7692 35.1863 73.3188 34.6068 73.3188 33.7935C73.3188 32.9739 73.7765 32.4224 74.5979 32.4224ZM74.5979 32.8412C74.0797 32.8412 73.8712 33.3214 73.8712 33.7935C73.8712 34.2719 74.0671 34.762 74.5979 34.762C75.125 34.762 75.3263 34.2728 75.3263 33.7935C75.3263 33.3214 75.1124 32.8412 74.5979 32.8412ZM77.323 32.4476C77.8465 32.4512 78.4224 32.5018 78.4224 33.1815C78.4224 33.4974 78.2283 33.761 77.9287 33.807C77.9287 33.8242 78.1182 33.937 78.1706 34.0616L78.5497 35.0726H77.963L77.6606 34.2557C77.5811 34.0544 77.5116 33.9921 77.2995 33.9921H77.1786V35.0726H76.5783V32.4467L77.323 32.4476ZM77.3636 32.9098H77.1786V33.5272H77.3636C77.5965 33.5272 77.8492 33.5155 77.8492 33.2131C77.8492 32.8908 77.5541 32.9098 77.3058 32.9098H77.3636ZM82.21 32.4467L83.2363 35.0726H82.6577L82.4302 34.4542H81.3768L81.1584 35.0726H80.6204L81.625 32.4467H82.21ZM81.9094 33.0642H81.9067L81.5339 34.1455H82.2885L81.9094 33.0642Z" fill="black"/>
</g>
<defs>
<clipPath id="clip0_256_155">
<rect width="102" height="48.7434" fill="white"/>
</clipPath>
</defs>
</svg>
